<mxfile host="65bd71144e">
    <diagram id="ohz56l5D70s4riNBQBWh" name="Page-1">
        <mxGraphModel dx="1987" dy="-979" grid="0" gridSize="10" guides="0" tooltips="1" connect="1" arrows="1" fold="1" page="1" pageScale="1" pageWidth="1100" pageHeight="850" math="1" shadow="0">
            <root>
                <mxCell id="0"/>
                <mxCell id="1" parent="0"/>
                <mxCell id="427" style="edgeStyle=none;html=1;fontSize=11;fontColor=#999999;" parent="1" source="423" target="402" edge="1">
                    <mxGeometry relative="1" as="geometry">
                        <Array as="points">
                            <mxPoint x="635" y="3621"/>
                            <mxPoint x="635" y="3997"/>
                        </Array>
                    </mxGeometry>
                </mxCell>
                <mxCell id="423" value="" style="rounded=0;whiteSpace=wrap;html=1;fontColor=#1A1A1A;fillColor=none;dashed=1;" parent="1" vertex="1">
                    <mxGeometry x="392.5" y="3583" width="168.5" height="75" as="geometry"/>
                </mxCell>
                <mxCell id="2" value="&lt;span style=&quot;font-weight: normal&quot;&gt;&lt;font style=&quot;font-size: 16px&quot;&gt;$$\mathbf{x}:=[x_e]_{m'\times 1} \in&amp;nbsp; \left \{0, 1\right \}$$&lt;/font&gt;&lt;/span&gt;" style="text;html=1;align=left;verticalAlign=middle;resizable=0;points=[];autosize=1;strokeColor=none;fillColor=none;fontSize=20;fontFamily=Helvetica;fontColor=#999999;fontStyle=1" parent="1" vertex="1">
                    <mxGeometry x="2239" y="3220" width="405" height="29" as="geometry"/>
                </mxCell>
                <mxCell id="3" value="&lt;span style=&quot;font-weight: normal&quot;&gt;&lt;font style=&quot;font-size: 16px&quot;&gt;$$\mathbf{s}:=[s_i]_{f\times 1}$$&lt;/font&gt;&lt;/span&gt;" style="text;html=1;align=left;verticalAlign=middle;resizable=0;points=[];autosize=1;strokeColor=none;fillColor=none;fontSize=20;fontFamily=Helvetica;fontColor=#000000;fontStyle=1" parent="1" vertex="1">
                    <mxGeometry x="2239" y="2749" width="250" height="30" as="geometry"/>
                </mxCell>
                <mxCell id="4" value="&lt;span style=&quot;font-weight: normal&quot;&gt;&lt;font style=&quot;font-size: 16px&quot;&gt;$$G_{base}=(V, E, w)$$&lt;/font&gt;&lt;/span&gt;" style="text;html=1;align=left;verticalAlign=middle;resizable=0;points=[];autosize=1;strokeColor=none;fillColor=none;fontSize=20;fontFamily=Helvetica;fontColor=#000000;fontStyle=1" parent="1" vertex="1">
                    <mxGeometry x="1140" y="2590" width="182" height="29" as="geometry"/>
                </mxCell>
                <mxCell id="5" value="&lt;span style=&quot;font-weight: normal&quot;&gt;&lt;font style=&quot;font-size: 16px&quot;&gt;$$\mathbf{s'}:=[s'_i]_{n\times 1}$$&lt;/font&gt;&lt;/span&gt;" style="text;html=1;align=left;verticalAlign=middle;resizable=0;points=[];autosize=1;strokeColor=none;fillColor=none;fontSize=20;fontFamily=Helvetica;fontColor=#000000;fontStyle=1" parent="1" vertex="1">
                    <mxGeometry x="2239" y="2711" width="260" height="30" as="geometry"/>
                </mxCell>
                <mxCell id="6" value="&lt;font style=&quot;font-size: 16px&quot;&gt;\(n:=|V|, m:=|E|, w : E \rightarrow&amp;nbsp;\mathbb{R} \)&lt;/font&gt;" style="text;html=1;align=left;verticalAlign=middle;resizable=0;points=[];autosize=1;strokeColor=none;fillColor=none;fontSize=16;fontFamily=Helvetica;fontColor=none;" parent="1" vertex="1">
                    <mxGeometry x="1140" y="2620" width="340" height="23" as="geometry"/>
                </mxCell>
                <mxCell id="7" value="&lt;span style=&quot;font-weight: normal&quot;&gt;&lt;font style=&quot;font-size: 16px&quot;&gt;$$\mathbf{B}:=[B_{ij}]_{n\times f}$$&lt;/font&gt;&lt;/span&gt;" style="text;html=1;align=left;verticalAlign=middle;resizable=0;points=[];autosize=1;strokeColor=none;fillColor=none;fontSize=20;fontFamily=Helvetica;fontColor=#000000;fontStyle=1" parent="1" vertex="1">
                    <mxGeometry x="2239" y="2790" width="270" height="30" as="geometry"/>
                </mxCell>
                <mxCell id="8" value="&lt;font style=&quot;font-size: 12px&quot;&gt;&lt;b&gt;Vulnerability Score of Spatial Unit to Vertex Property&lt;br&gt;&lt;/b&gt;This mathematically denotes the process of transforming vulnerability scores of spatial units to a vertex property. Each vertex obtains the vulnerability score of the spatial unit it is located within, so which spatial unit the vertex represents is no longer relevant, instead it represents now an area with specific vulnerability score.&amp;nbsp;&lt;/font&gt;" style="rounded=0;whiteSpace=wrap;html=1;fontFamily=Helvetica;fontSize=14;fontColor=#4D4D4D;strokeColor=#4D4D4D;strokeWidth=1;fillColor=none;align=left;" parent="1" vertex="1">
                    <mxGeometry x="2239" y="2600" width="440" height="99" as="geometry"/>
                </mxCell>
                <mxCell id="10" value="&lt;span style=&quot;font-weight: normal&quot;&gt;&lt;font style=&quot;font-size: 16px&quot;&gt;$$\tau= 2^{m'}$$&lt;/font&gt;&lt;/span&gt;" style="text;html=1;align=left;verticalAlign=middle;resizable=0;points=[];autosize=1;strokeColor=none;fillColor=none;fontSize=20;fontFamily=Helvetica;fontColor=#999999;fontStyle=1" parent="1" vertex="1">
                    <mxGeometry x="2239" y="3180" width="130" height="29" as="geometry"/>
                </mxCell>
                <mxCell id="11" value="&lt;font style=&quot;font-size: 12px&quot;&gt;&lt;b&gt;G&lt;sub&gt;base&lt;/sub&gt; to G&lt;sub&gt;design&lt;/sub&gt;&lt;br&gt;&lt;/b&gt;This mathematically denotes the process of deriving possible design combinations from G_base and it's adjacency matrix.&lt;/font&gt;" style="rounded=0;whiteSpace=wrap;html=1;fontFamily=Helvetica;fontSize=14;fontColor=#999999;strokeColor=#4D4D4D;strokeWidth=1;fillColor=none;align=left;" parent="1" vertex="1">
                    <mxGeometry x="2239" y="3045" width="440" height="62" as="geometry"/>
                </mxCell>
                <mxCell id="12" value="&lt;span style=&quot;font-weight: normal&quot;&gt;&lt;font style=&quot;font-size: 16px&quot;&gt;$$\mathbf{s'}= \mathbf{B}_{n\times f} \cdot \mathbf{s}_{f\times 1} $$&lt;/font&gt;&lt;/span&gt;" style="text;html=1;align=left;verticalAlign=middle;resizable=0;points=[];autosize=1;strokeColor=none;fillColor=none;fontSize=20;fontFamily=Helvetica;fontColor=#000000;fontStyle=1" parent="1" vertex="1">
                    <mxGeometry x="2409" y="2749" width="489" height="29" as="geometry"/>
                </mxCell>
                <mxCell id="13" value="&lt;span style=&quot;font-weight: normal&quot;&gt;&lt;font style=&quot;font-size: 16px&quot;&gt;$$m'= \frac{1}{2}( \mathbf{1}^T_{1 \times n} \cdot ((A_{base} - A_{start}) \cdot \mathbf{1}_{n \times 1}))$$&lt;/font&gt;&lt;/span&gt;" style="text;html=1;align=left;verticalAlign=middle;resizable=0;points=[];autosize=1;strokeColor=none;fillColor=none;fontSize=20;fontFamily=Helvetica;fontColor=#999999;fontStyle=1" parent="1" vertex="1">
                    <mxGeometry x="2239" y="3130" width="750" height="29" as="geometry"/>
                </mxCell>
                <mxCell id="14" value="" style="shape=table;startSize=0;container=1;collapsible=0;childLayout=tableLayout;fontColor=#000000;fillColor=none;fontSize=12;" parent="1" vertex="1">
                    <mxGeometry x="2860" y="2600" width="400" height="783.9212990196093" as="geometry"/>
                </mxCell>
                <mxCell id="15" value="" style="shape=partialRectangle;collapsible=0;dropTarget=0;pointerEvents=0;fillColor=none;top=0;left=0;bottom=0;right=0;points=[[0,0.5],[1,0.5]];portConstraint=eastwest;fontColor=#000000;" parent="14" vertex="1">
                    <mxGeometry width="400" height="40" as="geometry"/>
                </mxCell>
                <mxCell id="16" value="&lt;span style=&quot;color: rgb(0 , 0 , 0) ; font-family: &amp;#34;helvetica&amp;#34; ; font-size: 12px ; font-style: normal ; font-weight: 400 ; letter-spacing: normal ; text-align: left ; text-indent: 0px ; text-transform: none ; word-spacing: 0px ; background-color: rgb(248 , 249 , 250) ; display: inline ; float: none&quot;&gt;$$G_{base}$$&amp;nbsp;&lt;/span&gt;" style="shape=partialRectangle;html=1;whiteSpace=wrap;connectable=0;overflow=hidden;fillColor=none;top=0;left=0;bottom=0;right=0;pointerEvents=1;fontColor=#000000;" parent="15" vertex="1">
                    <mxGeometry width="60" height="40" as="geometry">
                        <mxRectangle width="60" height="40" as="alternateBounds"/>
                    </mxGeometry>
                </mxCell>
                <mxCell id="17" value="Base graph with the vertices and edges from all transport modes (walk, bike, bus)" style="shape=partialRectangle;html=1;whiteSpace=wrap;connectable=0;overflow=hidden;fillColor=none;top=0;left=0;bottom=0;right=0;pointerEvents=1;fontColor=#000000;align=left;" parent="15" vertex="1">
                    <mxGeometry x="60" width="340" height="40" as="geometry">
                        <mxRectangle width="340" height="40" as="alternateBounds"/>
                    </mxGeometry>
                </mxCell>
                <mxCell id="130" style="shape=partialRectangle;collapsible=0;dropTarget=0;pointerEvents=0;fillColor=none;top=0;left=0;bottom=0;right=0;points=[[0,0.5],[1,0.5]];portConstraint=eastwest;fontColor=#000000;" parent="14" vertex="1">
                    <mxGeometry y="40" width="400" height="40" as="geometry"/>
                </mxCell>
                <mxCell id="131" value="&lt;span style=&quot;font-family: &amp;#34;helvetica&amp;#34; ; text-align: left&quot;&gt;$$G_{start}$$&amp;nbsp;&lt;/span&gt;" style="shape=partialRectangle;html=1;whiteSpace=wrap;connectable=0;overflow=hidden;fillColor=none;top=0;left=0;bottom=0;right=0;pointerEvents=1;fontColor=#000000;" parent="130" vertex="1">
                    <mxGeometry width="60" height="40" as="geometry">
                        <mxRectangle width="60" height="40" as="alternateBounds"/>
                    </mxGeometry>
                </mxCell>
                <mxCell id="132" value="For every transport mode, this refers to the starting graph&amp;nbsp;" style="shape=partialRectangle;html=1;whiteSpace=wrap;connectable=0;overflow=hidden;fillColor=none;top=0;left=0;bottom=0;right=0;pointerEvents=1;fontColor=#000000;align=left;" parent="130" vertex="1">
                    <mxGeometry x="60" width="340" height="40" as="geometry">
                        <mxRectangle width="340" height="40" as="alternateBounds"/>
                    </mxGeometry>
                </mxCell>
                <mxCell id="135" style="shape=partialRectangle;collapsible=0;dropTarget=0;pointerEvents=0;fillColor=none;top=0;left=0;bottom=0;right=0;points=[[0,0.5],[1,0.5]];portConstraint=eastwest;fontColor=#000000;" parent="14" vertex="1">
                    <mxGeometry y="80" width="400" height="40" as="geometry"/>
                </mxCell>
                <mxCell id="136" value="&lt;span style=&quot;font-family: &amp;#34;helvetica&amp;#34; ; text-align: left&quot;&gt;$$G_{design}$$&amp;nbsp;&lt;/span&gt;" style="shape=partialRectangle;html=1;whiteSpace=wrap;connectable=0;overflow=hidden;fillColor=none;top=0;left=0;bottom=0;right=0;pointerEvents=1;fontColor=#000000;" parent="135" vertex="1">
                    <mxGeometry width="60" height="40" as="geometry">
                        <mxRectangle width="60" height="40" as="alternateBounds"/>
                    </mxGeometry>
                </mxCell>
                <mxCell id="137" value="Generated graphs (designs) representing all possible configurations given G&lt;sub&gt;base&amp;nbsp;&lt;/sub&gt;" style="shape=partialRectangle;html=1;whiteSpace=wrap;connectable=0;overflow=hidden;fillColor=none;top=0;left=0;bottom=0;right=0;pointerEvents=1;fontColor=#000000;align=left;" parent="135" vertex="1">
                    <mxGeometry x="60" width="340" height="40" as="geometry">
                        <mxRectangle width="340" height="40" as="alternateBounds"/>
                    </mxGeometry>
                </mxCell>
                <mxCell id="551" style="shape=partialRectangle;collapsible=0;dropTarget=0;pointerEvents=0;fillColor=none;top=0;left=0;bottom=0;right=0;points=[[0,0.5],[1,0.5]];portConstraint=eastwest;fontColor=#000000;" parent="14" vertex="1">
                    <mxGeometry y="120" width="400" height="38" as="geometry"/>
                </mxCell>
                <mxCell id="552" value="n" style="shape=partialRectangle;html=1;whiteSpace=wrap;connectable=0;overflow=hidden;fillColor=none;top=0;left=0;bottom=0;right=0;pointerEvents=1;fontColor=#000000;" parent="551" vertex="1">
                    <mxGeometry width="60" height="38" as="geometry">
                        <mxRectangle width="60" height="38" as="alternateBounds"/>
                    </mxGeometry>
                </mxCell>
                <mxCell id="553" value="Number of nodes" style="shape=partialRectangle;html=1;whiteSpace=wrap;connectable=0;overflow=hidden;fillColor=none;top=0;left=0;bottom=0;right=0;pointerEvents=1;fontColor=#000000;align=left;" parent="551" vertex="1">
                    <mxGeometry x="60" width="340" height="38" as="geometry">
                        <mxRectangle width="340" height="38" as="alternateBounds"/>
                    </mxGeometry>
                </mxCell>
                <mxCell id="554" style="shape=partialRectangle;collapsible=0;dropTarget=0;pointerEvents=0;fillColor=none;top=0;left=0;bottom=0;right=0;points=[[0,0.5],[1,0.5]];portConstraint=eastwest;fontColor=#000000;" parent="14" vertex="1">
                    <mxGeometry y="158" width="400" height="37" as="geometry"/>
                </mxCell>
                <mxCell id="555" value="m" style="shape=partialRectangle;html=1;whiteSpace=wrap;connectable=0;overflow=hidden;fillColor=none;top=0;left=0;bottom=0;right=0;pointerEvents=1;fontColor=#000000;" parent="554" vertex="1">
                    <mxGeometry width="60" height="37" as="geometry">
                        <mxRectangle width="60" height="37" as="alternateBounds"/>
                    </mxGeometry>
                </mxCell>
                <mxCell id="556" value="Number of edges" style="shape=partialRectangle;html=1;whiteSpace=wrap;connectable=0;overflow=hidden;fillColor=none;top=0;left=0;bottom=0;right=0;pointerEvents=1;fontColor=#000000;align=left;" parent="554" vertex="1">
                    <mxGeometry x="60" width="340" height="37" as="geometry">
                        <mxRectangle width="340" height="37" as="alternateBounds"/>
                    </mxGeometry>
                </mxCell>
                <mxCell id="141" style="shape=partialRectangle;collapsible=0;dropTarget=0;pointerEvents=0;fillColor=none;top=0;left=0;bottom=0;right=0;points=[[0,0.5],[1,0.5]];portConstraint=eastwest;fontColor=#000000;" parent="14" vertex="1">
                    <mxGeometry y="195" width="400" height="38" as="geometry"/>
                </mxCell>
                <mxCell id="142" value="&lt;span style=&quot;text-align: left&quot;&gt;&lt;font style=&quot;font-size: 12px&quot;&gt;$$\mathbf{s'}$$&lt;/font&gt;&lt;/span&gt;" style="shape=partialRectangle;html=1;whiteSpace=wrap;connectable=0;overflow=hidden;fillColor=none;top=0;left=0;bottom=0;right=0;pointerEvents=1;fontColor=#000000;" parent="141" vertex="1">
                    <mxGeometry width="60" height="38" as="geometry">
                        <mxRectangle width="60" height="38" as="alternateBounds"/>
                    </mxGeometry>
                </mxCell>
                <mxCell id="143" value="A vector with each element storing the vulnerability score represented by a vertice" style="shape=partialRectangle;html=1;whiteSpace=wrap;connectable=0;overflow=hidden;fillColor=none;top=0;left=0;bottom=0;right=0;pointerEvents=1;fontColor=#000000;align=left;" parent="141" vertex="1">
                    <mxGeometry x="60" width="340" height="38" as="geometry">
                        <mxRectangle width="340" height="38" as="alternateBounds"/>
                    </mxGeometry>
                </mxCell>
                <mxCell id="144" style="shape=partialRectangle;collapsible=0;dropTarget=0;pointerEvents=0;fillColor=none;top=0;left=0;bottom=0;right=0;points=[[0,0.5],[1,0.5]];portConstraint=eastwest;fontColor=#000000;" parent="14" vertex="1">
                    <mxGeometry y="233" width="400" height="39" as="geometry"/>
                </mxCell>
                <mxCell id="145" value="&lt;span style=&quot;text-align: left&quot;&gt;$$\mathbf{s}$$&lt;/span&gt;" style="shape=partialRectangle;html=1;whiteSpace=wrap;connectable=0;overflow=hidden;fillColor=none;top=0;left=0;bottom=0;right=0;pointerEvents=1;fontColor=#000000;" parent="144" vertex="1">
                    <mxGeometry width="60" height="39" as="geometry">
                        <mxRectangle width="60" height="39" as="alternateBounds"/>
                    </mxGeometry>
                </mxCell>
                <mxCell id="146" value="A vector with each element storing the vulnerability score of a spatial unit&amp;nbsp;" style="shape=partialRectangle;html=1;whiteSpace=wrap;connectable=0;overflow=hidden;fillColor=none;top=0;left=0;bottom=0;right=0;pointerEvents=1;fontColor=#000000;align=left;" parent="144" vertex="1">
                    <mxGeometry x="60" width="340" height="39" as="geometry">
                        <mxRectangle width="340" height="39" as="alternateBounds"/>
                    </mxGeometry>
                </mxCell>
                <mxCell id="147" style="shape=partialRectangle;collapsible=0;dropTarget=0;pointerEvents=0;fillColor=none;top=0;left=0;bottom=0;right=0;points=[[0,0.5],[1,0.5]];portConstraint=eastwest;fontColor=#000000;" parent="14" vertex="1">
                    <mxGeometry y="272" width="400" height="40" as="geometry"/>
                </mxCell>
                <mxCell id="148" value="&lt;span style=&quot;text-align: left&quot;&gt;$$\mathbf{B}$$&lt;/span&gt;" style="shape=partialRectangle;html=1;whiteSpace=wrap;connectable=0;overflow=hidden;fillColor=none;top=0;left=0;bottom=0;right=0;pointerEvents=1;fontColor=#000000;" parent="147" vertex="1">
                    <mxGeometry width="60" height="40" as="geometry">
                        <mxRectangle width="60" height="40" as="alternateBounds"/>
                    </mxGeometry>
                </mxCell>
                <mxCell id="149" value="A matrix assigning spatial units to vertices" style="shape=partialRectangle;html=1;whiteSpace=wrap;connectable=0;overflow=hidden;fillColor=none;top=0;left=0;bottom=0;right=0;pointerEvents=1;fontColor=#000000;align=left;" parent="147" vertex="1">
                    <mxGeometry x="60" width="340" height="40" as="geometry">
                        <mxRectangle width="340" height="40" as="alternateBounds"/>
                    </mxGeometry>
                </mxCell>
                <mxCell id="153" style="shape=partialRectangle;collapsible=0;dropTarget=0;pointerEvents=0;fillColor=none;top=0;left=0;bottom=0;right=0;points=[[0,0.5],[1,0.5]];portConstraint=eastwest;fontColor=#000000;" parent="14" vertex="1">
                    <mxGeometry y="312" width="400" height="40" as="geometry"/>
                </mxCell>
                <mxCell id="154" value="&lt;span style=&quot;text-align: left&quot;&gt;$$\mathbf{P'}$$&lt;/span&gt;" style="shape=partialRectangle;html=1;whiteSpace=wrap;connectable=0;overflow=hidden;fillColor=none;top=0;left=0;bottom=0;right=0;pointerEvents=1;fontColor=#000000;" parent="153" vertex="1">
                    <mxGeometry width="60" height="40" as="geometry">
                        <mxRectangle width="60" height="40" as="alternateBounds"/>
                    </mxGeometry>
                </mxCell>
                <mxCell id="155" value="A matrix showing the POI catory(ies) represented by each vertice" style="shape=partialRectangle;html=1;whiteSpace=wrap;connectable=0;overflow=hidden;fillColor=none;top=0;left=0;bottom=0;right=0;pointerEvents=1;fontColor=#000000;align=left;" parent="153" vertex="1">
                    <mxGeometry x="60" width="340" height="40" as="geometry">
                        <mxRectangle width="340" height="40" as="alternateBounds"/>
                    </mxGeometry>
                </mxCell>
                <mxCell id="156" style="shape=partialRectangle;collapsible=0;dropTarget=0;pointerEvents=0;fillColor=none;top=0;left=0;bottom=0;right=0;points=[[0,0.5],[1,0.5]];portConstraint=eastwest;fontColor=#000000;" parent="14" vertex="1">
                    <mxGeometry y="352" width="400" height="40" as="geometry"/>
                </mxCell>
                <mxCell id="157" value="&lt;span style=&quot;text-align: left&quot;&gt;$$\mathbf{P}$$&lt;/span&gt;" style="shape=partialRectangle;html=1;whiteSpace=wrap;connectable=0;overflow=hidden;fillColor=none;top=0;left=0;bottom=0;right=0;pointerEvents=1;fontColor=#000000;" parent="156" vertex="1">
                    <mxGeometry width="60" height="40" as="geometry">
                        <mxRectangle width="60" height="40" as="alternateBounds"/>
                    </mxGeometry>
                </mxCell>
                <mxCell id="158" value="A matrix assigning category to every POI" style="shape=partialRectangle;html=1;whiteSpace=wrap;connectable=0;overflow=hidden;fillColor=none;top=0;left=0;bottom=0;right=0;pointerEvents=1;fontColor=#000000;align=left;" parent="156" vertex="1">
                    <mxGeometry x="60" width="340" height="40" as="geometry">
                        <mxRectangle width="340" height="40" as="alternateBounds"/>
                    </mxGeometry>
                </mxCell>
                <mxCell id="159" style="shape=partialRectangle;collapsible=0;dropTarget=0;pointerEvents=0;fillColor=none;top=0;left=0;bottom=0;right=0;points=[[0,0.5],[1,0.5]];portConstraint=eastwest;fontColor=#000000;" parent="14" vertex="1">
                    <mxGeometry y="392" width="400" height="40" as="geometry"/>
                </mxCell>
                <mxCell id="160" value="&lt;span style=&quot;text-align: left&quot;&gt;$$\mathbf{C}$$&lt;/span&gt;" style="shape=partialRectangle;html=1;whiteSpace=wrap;connectable=0;overflow=hidden;fillColor=none;top=0;left=0;bottom=0;right=0;pointerEvents=1;fontColor=#000000;" parent="159" vertex="1">
                    <mxGeometry width="60" height="40" as="geometry">
                        <mxRectangle width="60" height="40" as="alternateBounds"/>
                    </mxGeometry>
                </mxCell>
                <mxCell id="161" value="A matrix representing the closest vertice for every POI" style="shape=partialRectangle;html=1;whiteSpace=wrap;connectable=0;overflow=hidden;fillColor=none;top=0;left=0;bottom=0;right=0;pointerEvents=1;fontColor=#000000;align=left;" parent="159" vertex="1">
                    <mxGeometry x="60" width="340" height="40" as="geometry">
                        <mxRectangle width="340" height="40" as="alternateBounds"/>
                    </mxGeometry>
                </mxCell>
                <mxCell id="167" style="shape=partialRectangle;collapsible=0;dropTarget=0;pointerEvents=0;fillColor=none;top=0;left=0;bottom=0;right=0;points=[[0,0.5],[1,0.5]];portConstraint=eastwest;fontColor=#000000;" parent="14" vertex="1">
                    <mxGeometry y="432" width="400" height="40" as="geometry"/>
                </mxCell>
                <mxCell id="168" value="&lt;span style=&quot;text-align: left&quot;&gt;$$\mathbf{x}$$&lt;/span&gt;" style="shape=partialRectangle;html=1;whiteSpace=wrap;connectable=0;overflow=hidden;fillColor=none;top=0;left=0;bottom=0;right=0;pointerEvents=1;fontColor=#000000;" parent="167" vertex="1">
                    <mxGeometry width="60" height="40" as="geometry">
                        <mxRectangle width="60" height="40" as="alternateBounds"/>
                    </mxGeometry>
                </mxCell>
                <mxCell id="169" value="A vector representing the decision variable" style="shape=partialRectangle;html=1;whiteSpace=wrap;connectable=0;overflow=hidden;fillColor=none;top=0;left=0;bottom=0;right=0;pointerEvents=1;fontColor=#000000;align=left;" parent="167" vertex="1">
                    <mxGeometry x="60" width="340" height="40" as="geometry">
                        <mxRectangle width="340" height="40" as="alternateBounds"/>
                    </mxGeometry>
                </mxCell>
                <mxCell id="557" style="shape=partialRectangle;collapsible=0;dropTarget=0;pointerEvents=0;fillColor=none;top=0;left=0;bottom=0;right=0;points=[[0,0.5],[1,0.5]];portConstraint=eastwest;fontColor=#000000;" parent="14" vertex="1">
                    <mxGeometry y="472" width="400" height="40" as="geometry"/>
                </mxCell>
                <mxCell id="558" value="&lt;span style=&quot;text-align: left&quot;&gt;$$\mathbf{l}$$&lt;/span&gt;" style="shape=partialRectangle;html=1;whiteSpace=wrap;connectable=0;overflow=hidden;fillColor=none;top=0;left=0;bottom=0;right=0;pointerEvents=1;fontColor=#000000;" parent="557" vertex="1">
                    <mxGeometry width="60" height="40" as="geometry">
                        <mxRectangle width="60" height="40" as="alternateBounds"/>
                    </mxGeometry>
                </mxCell>
                <mxCell id="559" value="A vector of the length of edges in the decision variable" style="shape=partialRectangle;html=1;whiteSpace=wrap;connectable=0;overflow=hidden;fillColor=none;top=0;left=0;bottom=0;right=0;pointerEvents=1;fontColor=#000000;align=left;" parent="557" vertex="1">
                    <mxGeometry x="60" width="340" height="40" as="geometry">
                        <mxRectangle width="340" height="40" as="alternateBounds"/>
                    </mxGeometry>
                </mxCell>
                <mxCell id="27" value="" style="shape=partialRectangle;collapsible=0;dropTarget=0;pointerEvents=0;fillColor=none;top=0;left=0;bottom=0;right=0;points=[[0,0.5],[1,0.5]];portConstraint=eastwest;fontColor=#000000;" parent="14" vertex="1">
                    <mxGeometry y="512" width="400" height="40" as="geometry"/>
                </mxCell>
                <mxCell id="28" value="$$f$$" style="shape=partialRectangle;html=1;whiteSpace=wrap;connectable=0;overflow=hidden;fillColor=none;top=0;left=0;bottom=0;right=0;pointerEvents=1;fontColor=#000000;" parent="27" vertex="1">
                    <mxGeometry width="60" height="40" as="geometry">
                        <mxRectangle width="60" height="40" as="alternateBounds"/>
                    </mxGeometry>
                </mxCell>
                <mxCell id="29" value="The number of spatial units in the study area" style="shape=partialRectangle;html=1;whiteSpace=wrap;connectable=0;overflow=hidden;fillColor=none;top=0;left=0;bottom=0;right=0;pointerEvents=1;fontColor=#000000;align=left;" parent="27" vertex="1">
                    <mxGeometry x="60" width="340" height="40" as="geometry">
                        <mxRectangle width="340" height="40" as="alternateBounds"/>
                    </mxGeometry>
                </mxCell>
                <mxCell id="31" value="" style="shape=partialRectangle;collapsible=0;dropTarget=0;pointerEvents=0;fillColor=none;top=0;left=0;bottom=0;right=0;points=[[0,0.5],[1,0.5]];portConstraint=eastwest;fontColor=#000000;" parent="14" vertex="1">
                    <mxGeometry y="552" width="400" height="40" as="geometry"/>
                </mxCell>
                <mxCell id="32" value="$$o$$" style="shape=partialRectangle;html=1;whiteSpace=wrap;connectable=0;overflow=hidden;fillColor=none;top=0;left=0;bottom=0;right=0;pointerEvents=1;fontColor=#000000;" parent="31" vertex="1">
                    <mxGeometry width="60" height="40" as="geometry">
                        <mxRectangle width="60" height="40" as="alternateBounds"/>
                    </mxGeometry>
                </mxCell>
                <mxCell id="33" value="The total number of POI" style="shape=partialRectangle;html=1;whiteSpace=wrap;connectable=0;overflow=hidden;fillColor=none;top=0;left=0;bottom=0;right=0;pointerEvents=1;fontColor=#000000;align=left;" parent="31" vertex="1">
                    <mxGeometry x="60" width="340" height="40" as="geometry">
                        <mxRectangle width="340" height="40" as="alternateBounds"/>
                    </mxGeometry>
                </mxCell>
                <mxCell id="35" style="shape=partialRectangle;collapsible=0;dropTarget=0;pointerEvents=0;fillColor=none;top=0;left=0;bottom=0;right=0;points=[[0,0.5],[1,0.5]];portConstraint=eastwest;fontColor=#000000;" parent="14" vertex="1">
                    <mxGeometry y="592" width="400" height="31" as="geometry"/>
                </mxCell>
                <mxCell id="36" value="&lt;span&gt;$$k$$&lt;/span&gt;" style="shape=partialRectangle;html=1;whiteSpace=wrap;connectable=0;overflow=hidden;fillColor=none;top=0;left=0;bottom=0;right=0;pointerEvents=1;fontColor=#000000;" parent="35" vertex="1">
                    <mxGeometry width="60" height="31" as="geometry">
                        <mxRectangle width="60" height="31" as="alternateBounds"/>
                    </mxGeometry>
                </mxCell>
                <mxCell id="37" value="The number of POI categories" style="shape=partialRectangle;html=1;whiteSpace=wrap;connectable=0;overflow=hidden;fillColor=none;top=0;left=0;bottom=0;right=0;pointerEvents=1;fontColor=#000000;align=left;" parent="35" vertex="1">
                    <mxGeometry x="60" width="340" height="31" as="geometry">
                        <mxRectangle width="340" height="31" as="alternateBounds"/>
                    </mxGeometry>
                </mxCell>
                <mxCell id="563" style="shape=partialRectangle;collapsible=0;dropTarget=0;pointerEvents=0;fillColor=none;top=0;left=0;bottom=0;right=0;points=[[0,0.5],[1,0.5]];portConstraint=eastwest;fontColor=#000000;" parent="14" vertex="1">
                    <mxGeometry y="623" width="400" height="33" as="geometry"/>
                </mxCell>
                <mxCell id="564" value="&lt;span&gt;$$o_k$$&lt;/span&gt;" style="shape=partialRectangle;html=1;whiteSpace=wrap;connectable=0;overflow=hidden;fillColor=none;top=0;left=0;bottom=0;right=0;pointerEvents=1;fontColor=#000000;" parent="563" vertex="1">
                    <mxGeometry width="60" height="33" as="geometry">
                        <mxRectangle width="60" height="33" as="alternateBounds"/>
                    </mxGeometry>
                </mxCell>
                <mxCell id="565" value="The number of POI in one POI category" style="shape=partialRectangle;html=1;whiteSpace=wrap;connectable=0;overflow=hidden;fillColor=none;top=0;left=0;bottom=0;right=0;pointerEvents=1;fontColor=#000000;align=left;" parent="563" vertex="1">
                    <mxGeometry x="60" width="340" height="33" as="geometry">
                        <mxRectangle width="340" height="33" as="alternateBounds"/>
                    </mxGeometry>
                </mxCell>
                <mxCell id="39" style="shape=partialRectangle;collapsible=0;dropTarget=0;pointerEvents=0;fillColor=none;top=0;left=0;bottom=0;right=0;points=[[0,0.5],[1,0.5]];portConstraint=eastwest;fontColor=#000000;" parent="14" vertex="1">
                    <mxGeometry y="656" width="400" height="40" as="geometry"/>
                </mxCell>
                <mxCell id="40" value="&lt;span&gt;$$m'$$&lt;/span&gt;" style="shape=partialRectangle;html=1;whiteSpace=wrap;connectable=0;overflow=hidden;fillColor=none;top=0;left=0;bottom=0;right=0;pointerEvents=1;fontColor=#000000;" parent="39" vertex="1">
                    <mxGeometry width="60" height="40" as="geometry">
                        <mxRectangle width="60" height="40" as="alternateBounds"/>
                    </mxGeometry>
                </mxCell>
                <mxCell id="41" value="The number of edge that can be added" style="shape=partialRectangle;html=1;whiteSpace=wrap;connectable=0;overflow=hidden;fillColor=none;top=0;left=0;bottom=0;right=0;pointerEvents=1;fontColor=#000000;align=left;" parent="39" vertex="1">
                    <mxGeometry x="60" width="340" height="40" as="geometry">
                        <mxRectangle width="340" height="40" as="alternateBounds"/>
                    </mxGeometry>
                </mxCell>
                <mxCell id="560" style="shape=partialRectangle;collapsible=0;dropTarget=0;pointerEvents=0;fillColor=none;top=0;left=0;bottom=0;right=0;points=[[0,0.5],[1,0.5]];portConstraint=eastwest;fontColor=#000000;" parent="14" vertex="1">
                    <mxGeometry y="696" width="400" height="44" as="geometry"/>
                </mxCell>
                <mxCell id="561" value="&lt;span style=&quot;text-align: left&quot;&gt;$$\mathbf{\alpha}$$&lt;/span&gt;" style="shape=partialRectangle;html=1;whiteSpace=wrap;connectable=0;overflow=hidden;fillColor=none;top=0;left=0;bottom=0;right=0;pointerEvents=1;fontColor=#000000;" parent="560" vertex="1">
                    <mxGeometry width="60" height="44" as="geometry">
                        <mxRectangle width="60" height="44" as="alternateBounds"/>
                    </mxGeometry>
                </mxCell>
                <mxCell id="562" value="Accessibility vector" style="shape=partialRectangle;html=1;whiteSpace=wrap;connectable=0;overflow=hidden;fillColor=none;top=0;left=0;bottom=0;right=0;pointerEvents=1;fontColor=#000000;align=left;" parent="560" vertex="1">
                    <mxGeometry x="60" width="340" height="44" as="geometry">
                        <mxRectangle width="340" height="44" as="alternateBounds"/>
                    </mxGeometry>
                </mxCell>
                <mxCell id="43" style="shape=partialRectangle;collapsible=0;dropTarget=0;pointerEvents=0;fillColor=none;top=0;left=0;bottom=0;right=0;points=[[0,0.5],[1,0.5]];portConstraint=eastwest;fontColor=#000000;" parent="14" vertex="1">
                    <mxGeometry y="740" width="400" height="44" as="geometry"/>
                </mxCell>
                <mxCell id="44" value="$$\tau$$" style="shape=partialRectangle;html=1;whiteSpace=wrap;connectable=0;overflow=hidden;fillColor=none;top=0;left=0;bottom=0;right=0;pointerEvents=1;fontColor=#000000;" parent="43" vertex="1">
                    <mxGeometry width="60" height="44" as="geometry">
                        <mxRectangle width="60" height="44" as="alternateBounds"/>
                    </mxGeometry>
                </mxCell>
                <mxCell id="45" value="The number of all possible configurations in the decision variable (vector x)" style="shape=partialRectangle;html=1;whiteSpace=wrap;connectable=0;overflow=hidden;fillColor=none;top=0;left=0;bottom=0;right=0;pointerEvents=1;fontColor=#000000;align=left;" parent="43" vertex="1">
                    <mxGeometry x="60" width="340" height="44" as="geometry">
                        <mxRectangle width="340" height="44" as="alternateBounds"/>
                    </mxGeometry>
                </mxCell>
                <mxCell id="67" value="&lt;span style=&quot;font-weight: normal&quot;&gt;&lt;font style=&quot;font-size: 16px&quot;&gt;$$\mathbf{P}:=[P_{ij}]_{o\times k}$$&lt;/font&gt;&lt;/span&gt;" style="text;html=1;align=left;verticalAlign=middle;resizable=0;points=[];autosize=1;strokeColor=none;fillColor=none;fontSize=20;fontFamily=Helvetica;fontColor=#000000;fontStyle=1" parent="1" vertex="1">
                    <mxGeometry x="2239" y="2950" width="270" height="30" as="geometry"/>
                </mxCell>
                <mxCell id="68" value="&lt;span style=&quot;font-weight: normal&quot;&gt;&lt;font style=&quot;font-size: 16px&quot;&gt;$$\mathbf{P'}:=[P'_{ij}]_{n\times k}$$&lt;/font&gt;&lt;/span&gt;" style="text;html=1;align=left;verticalAlign=middle;resizable=0;points=[];autosize=1;strokeColor=none;fillColor=none;fontSize=20;fontFamily=Helvetica;fontColor=#000000;fontStyle=1" parent="1" vertex="1">
                    <mxGeometry x="2239" y="2910" width="280" height="30" as="geometry"/>
                </mxCell>
                <mxCell id="69" value="&lt;span style=&quot;font-weight: normal&quot;&gt;&lt;font style=&quot;font-size: 16px&quot;&gt;$$\mathbf{C}:=[C_{ij}]_{n\times o}$$&lt;/font&gt;&lt;/span&gt;" style="text;html=1;align=left;verticalAlign=middle;resizable=0;points=[];autosize=1;strokeColor=none;fillColor=none;fontSize=20;fontFamily=Helvetica;fontColor=#000000;fontStyle=1" parent="1" vertex="1">
                    <mxGeometry x="2239" y="2990" width="270" height="30" as="geometry"/>
                </mxCell>
                <mxCell id="70" value="&lt;font style=&quot;font-size: 12px&quot;&gt;&lt;b&gt;POI to Vertex Property&lt;/b&gt;&lt;br&gt;This mathematically denotes the process of assigning POIs to vertices and results in a matrix that shows the POI category(ies) represented by every vertex.&amp;nbsp;&lt;/font&gt;" style="rounded=0;whiteSpace=wrap;html=1;fontFamily=Helvetica;fontSize=14;fontColor=#4D4D4D;strokeColor=#4D4D4D;strokeWidth=1;fillColor=none;align=left;" parent="1" vertex="1">
                    <mxGeometry x="2239" y="2840" width="440" height="60" as="geometry"/>
                </mxCell>
                <mxCell id="71" value="&lt;span style=&quot;font-weight: normal&quot;&gt;&lt;font style=&quot;font-size: 16px&quot;&gt;$$\mathbf{P'}= \mathbf{C}_{n\times o} \cdot \mathbf{P}_{o\times k} $$&lt;/font&gt;&lt;/span&gt;" style="text;html=1;align=left;verticalAlign=middle;resizable=0;points=[];autosize=1;strokeColor=none;fillColor=none;fontSize=20;fontFamily=Helvetica;fontColor=#000000;fontStyle=1" parent="1" vertex="1">
                    <mxGeometry x="2399" y="2951" width="510" height="30" as="geometry"/>
                </mxCell>
                <mxCell id="72" value="" style="shape=table;html=1;whiteSpace=wrap;startSize=0;container=1;collapsible=0;childLayout=tableLayout;fontColor=#333333;strokeColor=#4D4D4D;fillColor=#009900;direction=east;strokeWidth=3;perimeterSpacing=0;" parent="1" vertex="1">
                    <mxGeometry x="1140" y="2659" width="256" height="253" as="geometry"/>
                </mxCell>
                <mxCell id="73" value="" style="shape=partialRectangle;html=1;whiteSpace=wrap;collapsible=0;dropTarget=0;pointerEvents=0;fillColor=none;top=0;left=0;bottom=0;right=0;points=[[0,0.5],[1,0.5]];portConstraint=eastwest;fontColor=#333333;strokeColor=#333333;" parent="72" vertex="1">
                    <mxGeometry width="256" height="127" as="geometry"/>
                </mxCell>
                <mxCell id="74" value="" style="shape=partialRectangle;html=1;whiteSpace=wrap;connectable=0;fillColor=#0066CC;top=0;left=0;bottom=0;right=0;overflow=hidden;pointerEvents=1;fontColor=#333333;strokeColor=#808080;labelBackgroundColor=default;strokeWidth=3;" parent="73" vertex="1">
                    <mxGeometry width="124" height="127" as="geometry">
                        <mxRectangle width="124" height="127" as="alternateBounds"/>
                    </mxGeometry>
                </mxCell>
                <mxCell id="75" value="" style="shape=partialRectangle;html=1;whiteSpace=wrap;connectable=0;fillColor=#66B2FF;top=0;left=0;bottom=0;right=0;overflow=hidden;pointerEvents=1;fontColor=#333333;strokeColor=#808080;labelBackgroundColor=default;strokeWidth=3;perimeterSpacing=0;" parent="73" vertex="1">
                    <mxGeometry x="124" width="132" height="127" as="geometry">
                        <mxRectangle width="132" height="127" as="alternateBounds"/>
                    </mxGeometry>
                </mxCell>
                <mxCell id="76" value="" style="shape=partialRectangle;html=1;whiteSpace=wrap;collapsible=0;dropTarget=0;pointerEvents=0;fillColor=none;top=0;left=0;bottom=0;right=0;points=[[0,0.5],[1,0.5]];portConstraint=eastwest;fontColor=#333333;strokeColor=#333333;" parent="72" vertex="1">
                    <mxGeometry y="127" width="256" height="126" as="geometry"/>
                </mxCell>
                <mxCell id="77" value="" style="shape=partialRectangle;html=1;whiteSpace=wrap;connectable=0;fillColor=#0066CC;top=0;left=0;bottom=0;right=0;overflow=hidden;pointerEvents=1;fontColor=#333333;strokeColor=#808080;labelBackgroundColor=default;strokeWidth=3;" parent="76" vertex="1">
                    <mxGeometry width="124" height="126" as="geometry">
                        <mxRectangle width="124" height="126" as="alternateBounds"/>
                    </mxGeometry>
                </mxCell>
                <mxCell id="78" value="" style="shape=partialRectangle;html=1;whiteSpace=wrap;connectable=0;fillColor=#66B2FF;top=0;left=0;bottom=0;right=0;overflow=hidden;pointerEvents=1;fontColor=#333333;strokeColor=#808080;strokeWidth=3;" parent="76" vertex="1">
                    <mxGeometry x="124" width="132" height="126" as="geometry">
                        <mxRectangle width="132" height="126" as="alternateBounds"/>
                    </mxGeometry>
                </mxCell>
                <mxCell id="79" value="&lt;font&gt;a&lt;/font&gt;" style="ellipse;whiteSpace=wrap;html=1;aspect=fixed;labelBackgroundColor=none;fontFamily=Helvetica;fontColor=#333333;align=center;strokeColor=#666666;" parent="1" vertex="1">
                    <mxGeometry x="1158" y="2671" width="20" height="20" as="geometry"/>
                </mxCell>
                <mxCell id="80" value="2" style="edgeStyle=none;html=1;fontFamily=Helvetica;fontColor=#1A1A1A;endArrow=none;endFill=0;strokeColor=#CCCCCC;strokeWidth=4;align=center;labelBackgroundColor=none;" parent="1" source="84" target="79" edge="1">
                    <mxGeometry relative="1" as="geometry">
                        <Array as="points"/>
                    </mxGeometry>
                </mxCell>
                <mxCell id="81" style="edgeStyle=none;html=1;fontFamily=Helvetica;fontColor=#0000FF;endArrow=none;endFill=0;strokeColor=#CCCCCC;strokeWidth=4;" parent="1" source="84" target="86" edge="1">
                    <mxGeometry relative="1" as="geometry"/>
                </mxCell>
                <mxCell id="277" value="2" style="edgeLabel;html=1;align=center;verticalAlign=middle;resizable=0;points=[];labelBackgroundColor=none;fontColor=#1A1A1A;" parent="81" vertex="1" connectable="0">
                    <mxGeometry x="0.0544" y="-1" relative="1" as="geometry">
                        <mxPoint as="offset"/>
                    </mxGeometry>
                </mxCell>
                <mxCell id="82" value="6" style="edgeStyle=none;html=1;fontColor=#1A1A1A;strokeColor=#CCCCCC;endArrow=none;endFill=0;strokeWidth=4;labelBackgroundColor=none;" parent="1" source="84" target="92" edge="1">
                    <mxGeometry relative="1" as="geometry">
                        <Array as="points">
                            <mxPoint x="1271" y="2750"/>
                        </Array>
                    </mxGeometry>
                </mxCell>
                <mxCell id="83" value="6" style="edgeStyle=orthogonalEdgeStyle;html=1;fontColor=#1A1A1A;endArrow=none;endFill=0;strokeColor=#CCCCCC;strokeWidth=4;labelBackgroundColor=none;" parent="1" source="84" target="92" edge="1">
                    <mxGeometry relative="1" as="geometry">
                        <Array as="points">
                            <mxPoint x="1264" y="2757"/>
                            <mxPoint x="1264" y="2815"/>
                        </Array>
                    </mxGeometry>
                </mxCell>
                <mxCell id="84" value="&lt;font&gt;b&lt;/font&gt;" style="ellipse;whiteSpace=wrap;html=1;aspect=fixed;labelBackgroundColor=none;fontFamily=Helvetica;fontColor=#333333;align=center;strokeColor=#666666;" parent="1" vertex="1">
                    <mxGeometry x="1158" y="2740" width="20" height="20" as="geometry"/>
                </mxCell>
                <mxCell id="85" value="5" style="edgeStyle=none;html=1;fontColor=#1A1A1A;strokeColor=#CCCCCC;endArrow=none;endFill=0;strokeWidth=4;labelBackgroundColor=none;" parent="1" source="86" target="92" edge="1">
                    <mxGeometry relative="1" as="geometry"/>
                </mxCell>
                <mxCell id="86" value="&lt;font&gt;c&lt;/font&gt;" style="ellipse;whiteSpace=wrap;html=1;aspect=fixed;labelBackgroundColor=none;fontFamily=Helvetica;fontColor=#333333;align=center;strokeColor=#666666;fillColor=#FFFFFF;" parent="1" vertex="1">
                    <mxGeometry x="1158" y="2812" width="20" height="20" as="geometry"/>
                </mxCell>
                <mxCell id="87" value="2" style="edgeStyle=none;html=1;fontColor=#1A1A1A;strokeColor=#CCCCCC;endArrow=none;endFill=0;strokeWidth=4;align=center;labelBackgroundColor=none;" parent="1" source="88" target="86" edge="1">
                    <mxGeometry relative="1" as="geometry"/>
                </mxCell>
                <mxCell id="88" value="&lt;font&gt;d&lt;/font&gt;" style="ellipse;whiteSpace=wrap;html=1;aspect=fixed;labelBackgroundColor=none;fontFamily=Helvetica;fontColor=#333333;align=center;strokeColor=#666666;" parent="1" vertex="1">
                    <mxGeometry x="1158" y="2876" width="20" height="20" as="geometry"/>
                </mxCell>
                <mxCell id="89" value="1" style="edgeStyle=none;html=1;fontColor=#1A1A1A;strokeColor=#CCCCCC;endArrow=none;endFill=0;strokeWidth=4;labelBackgroundColor=none;" parent="1" source="92" target="94" edge="1">
                    <mxGeometry relative="1" as="geometry">
                        <mxPoint x="1359.9999999998981" y="2822" as="targetPoint"/>
                    </mxGeometry>
                </mxCell>
                <mxCell id="90" value="2" style="edgeStyle=none;html=1;fontColor=#1A1A1A;strokeColor=#CCCCCC;endArrow=none;endFill=0;strokeWidth=4;labelBackgroundColor=none;" parent="1" source="92" target="93" edge="1">
                    <mxGeometry relative="1" as="geometry"/>
                </mxCell>
                <mxCell id="91" value="2" style="edgeStyle=orthogonalEdgeStyle;html=1;fontColor=#1A1A1A;endArrow=none;endFill=0;strokeColor=#CCCCCC;strokeWidth=4;elbow=vertical;labelBackgroundColor=none;" parent="1" target="93" edge="1">
                    <mxGeometry relative="1" as="geometry">
                        <mxPoint x="1296" y="2822" as="sourcePoint"/>
                        <Array as="points">
                            <mxPoint x="1286" y="2822"/>
                        </Array>
                    </mxGeometry>
                </mxCell>
                <mxCell id="92" value="&lt;font&gt;e&lt;/font&gt;" style="ellipse;whiteSpace=wrap;html=1;aspect=fixed;labelBackgroundColor=none;fontFamily=Helvetica;fontColor=#333333;align=center;strokeColor=#666666;" parent="1" vertex="1">
                    <mxGeometry x="1286" y="2812" width="20" height="20" as="geometry"/>
                </mxCell>
                <mxCell id="93" value="&lt;font&gt;f&lt;/font&gt;" style="ellipse;whiteSpace=wrap;html=1;aspect=fixed;labelBackgroundColor=none;fontFamily=Helvetica;fontColor=#333333;align=center;strokeColor=#666666;" parent="1" vertex="1">
                    <mxGeometry x="1286" y="2876" width="20" height="20" as="geometry"/>
                </mxCell>
                <mxCell id="94" value="&lt;font&gt;g&lt;/font&gt;" style="ellipse;whiteSpace=wrap;html=1;aspect=fixed;labelBackgroundColor=none;fontFamily=Helvetica;fontColor=#333333;align=center;strokeColor=#666666;fillColor=#FFFFFF;" parent="1" vertex="1">
                    <mxGeometry x="1359" y="2812" width="20" height="20" as="geometry"/>
                </mxCell>
                <mxCell id="95" style="edgeStyle=none;html=1;exitX=0;exitY=1;exitDx=0;exitDy=0;entryX=1;entryY=0;entryDx=0;entryDy=0;fontSize=12;fontColor=#CCCCCC;strokeColor=#CCCCCC;strokeWidth=1;elbow=vertical;" parent="1" source="96" target="86" edge="1">
                    <mxGeometry relative="1" as="geometry"/>
                </mxCell>
                <mxCell id="96" value="" style="ellipse;whiteSpace=wrap;html=1;aspect=fixed;labelBackgroundColor=none;fontFamily=Helvetica;fontColor=#333333;align=center;strokeColor=#666666;fillColor=#FF3333;" parent="1" vertex="1">
                    <mxGeometry x="1190" y="2790" width="11" height="11" as="geometry"/>
                </mxCell>
                <mxCell id="97" style="html=1;exitX=1;exitY=0;exitDx=0;exitDy=0;entryX=0;entryY=1;entryDx=0;entryDy=0;fontSize=12;fontColor=#CCCCCC;strokeColor=#CCCCCC;strokeWidth=1;elbow=vertical;" parent="1" source="98" target="94" edge="1">
                    <mxGeometry relative="1" as="geometry"/>
                </mxCell>
                <mxCell id="98" value="" style="ellipse;whiteSpace=wrap;html=1;aspect=fixed;labelBackgroundColor=none;fontFamily=Helvetica;fontColor=#333333;align=center;strokeColor=#666666;fillColor=#FF3333;" parent="1" vertex="1">
                    <mxGeometry x="1342" y="2846" width="11" height="11" as="geometry"/>
                </mxCell>
                <mxCell id="99" value="&lt;font color=&quot;#ffffff&quot; style=&quot;font-size: 9px;&quot;&gt;SU #1&lt;/font&gt;" style="text;html=1;align=left;verticalAlign=middle;resizable=0;points=[];autosize=1;strokeColor=none;fillColor=none;fontColor=#4D4D4D;fontSize=9;" parent="1" vertex="1">
                    <mxGeometry x="1140" y="2655" width="40" height="20" as="geometry"/>
                </mxCell>
                <mxCell id="103" value="" style="ellipse;whiteSpace=wrap;html=1;aspect=fixed;labelBackgroundColor=none;fontFamily=Helvetica;fontColor=#333333;align=center;strokeColor=#666666;fillColor=#FF8000;" parent="1" vertex="1">
                    <mxGeometry x="1264" y="2899" width="11" height="11" as="geometry"/>
                </mxCell>
                <mxCell id="104" style="html=1;entryX=0.446;entryY=0.985;entryDx=0;entryDy=0;fontSize=12;fontColor=#CCCCCC;strokeColor=#CCCCCC;strokeWidth=1;elbow=vertical;entryPerimeter=0;" parent="1" source="103" target="93" edge="1">
                    <mxGeometry relative="1" as="geometry">
                        <mxPoint x="1361.3890872965953" y="2857.610912703405" as="sourcePoint"/>
                        <mxPoint x="1371.9289321881342" y="2839.0710678118667" as="targetPoint"/>
                    </mxGeometry>
                </mxCell>
                <mxCell id="105" value="&lt;font color=&quot;#ff3333&quot; size=&quot;1&quot;&gt;&lt;b style=&quot;font-size: 8px&quot;&gt;HOSPITAL&lt;/b&gt;&lt;/font&gt;" style="text;html=1;align=center;verticalAlign=middle;resizable=0;points=[];autosize=1;strokeColor=none;fillColor=none;fontSize=16;fontFamily=Helvetica;fontColor=#4D4D4D;" parent="1" vertex="1">
                    <mxGeometry x="1170.5" y="2767.5" width="50" height="26" as="geometry"/>
                </mxCell>
                <mxCell id="106" value="&lt;font color=&quot;#ff3333&quot; size=&quot;1&quot;&gt;&lt;b style=&quot;font-size: 8px&quot;&gt;PHARMACEY&lt;/b&gt;&lt;/font&gt;" style="text;html=1;align=center;verticalAlign=middle;resizable=0;points=[];autosize=1;strokeColor=none;fillColor=none;fontSize=16;fontFamily=Helvetica;fontColor=#4D4D4D;" parent="1" vertex="1">
                    <mxGeometry x="1317" y="2850" width="62" height="26" as="geometry"/>
                </mxCell>
                <mxCell id="107" value="&lt;font size=&quot;1&quot; color=&quot;#ff8000&quot;&gt;&lt;b style=&quot;font-size: 8px&quot;&gt;RESTAURANT&lt;/b&gt;&lt;/font&gt;" style="text;html=1;align=center;verticalAlign=middle;resizable=0;points=[];autosize=1;strokeColor=none;fillColor=none;fontSize=16;fontFamily=Helvetica;fontColor=#4D4D4D;" parent="1" vertex="1">
                    <mxGeometry x="1210" y="2876" width="65" height="26" as="geometry"/>
                </mxCell>
                <mxCell id="108" value="&lt;font&gt;a&lt;/font&gt;" style="ellipse;whiteSpace=wrap;html=1;aspect=fixed;labelBackgroundColor=none;fontFamily=Helvetica;fontColor=#0000FF;align=center;strokeColor=#0000FF;" parent="1" vertex="1">
                    <mxGeometry x="1490" y="2681" width="20" height="20" as="geometry"/>
                </mxCell>
                <mxCell id="109" style="edgeStyle=none;html=1;fontFamily=Helvetica;fontColor=#0000FF;endArrow=none;endFill=0;strokeColor=#0000FF;strokeWidth=1;align=center;" parent="1" source="112" target="108" edge="1">
                    <mxGeometry relative="1" as="geometry"/>
                </mxCell>
                <mxCell id="278" value="2" style="edgeLabel;html=1;align=center;verticalAlign=middle;resizable=0;points=[];fontColor=#1A1A1A;" parent="109" vertex="1" connectable="0">
                    <mxGeometry x="-0.2263" y="-1" relative="1" as="geometry">
                        <mxPoint as="offset"/>
                    </mxGeometry>
                </mxCell>
                <mxCell id="110" style="edgeStyle=none;html=1;fontFamily=Helvetica;fontColor=#0000FF;endArrow=none;endFill=0;strokeColor=#0000FF;strokeWidth=1;" parent="1" source="112" target="114" edge="1">
                    <mxGeometry relative="1" as="geometry"/>
                </mxCell>
                <mxCell id="279" value="2" style="edgeLabel;html=1;align=center;verticalAlign=middle;resizable=0;points=[];fontColor=#1A1A1A;" parent="110" vertex="1" connectable="0">
                    <mxGeometry x="0.1271" y="-1" relative="1" as="geometry">
                        <mxPoint as="offset"/>
                    </mxGeometry>
                </mxCell>
                <mxCell id="111" value="6" style="edgeStyle=none;html=1;fontColor=#0000FF;strokeColor=#0000FF;endArrow=none;endFill=0;strokeWidth=1;" parent="1" source="112" target="118" edge="1">
                    <mxGeometry relative="1" as="geometry">
                        <Array as="points">
                            <mxPoint x="1603" y="2760"/>
                        </Array>
                    </mxGeometry>
                </mxCell>
                <mxCell id="112" value="&lt;font&gt;b&lt;/font&gt;" style="ellipse;whiteSpace=wrap;html=1;aspect=fixed;labelBackgroundColor=none;fontFamily=Helvetica;fontColor=#0000FF;align=center;strokeColor=#0000FF;" parent="1" vertex="1">
                    <mxGeometry x="1490" y="2750" width="20" height="20" as="geometry"/>
                </mxCell>
                <mxCell id="113" value="5" style="edgeStyle=none;html=1;fontColor=#0000FF;strokeColor=#0000FF;endArrow=none;endFill=0;strokeWidth=1;" parent="1" source="114" target="118" edge="1">
                    <mxGeometry relative="1" as="geometry"/>
                </mxCell>
                <mxCell id="114" value="&lt;font&gt;c&lt;/font&gt;" style="ellipse;whiteSpace=wrap;html=1;aspect=fixed;labelBackgroundColor=none;fontFamily=Helvetica;fontColor=#0000FF;align=center;strokeColor=#0000FF;" parent="1" vertex="1">
                    <mxGeometry x="1490" y="2822" width="20" height="20" as="geometry"/>
                </mxCell>
                <mxCell id="115" value="2" style="edgeStyle=none;html=1;fontColor=#0000FF;strokeColor=#0000FF;endArrow=none;endFill=0;strokeWidth=1;align=center;" parent="1" source="116" target="114" edge="1">
                    <mxGeometry relative="1" as="geometry"/>
                </mxCell>
                <mxCell id="116" value="&lt;font&gt;d&lt;/font&gt;" style="ellipse;whiteSpace=wrap;html=1;aspect=fixed;labelBackgroundColor=none;fontFamily=Helvetica;fontColor=#0000FF;align=center;strokeColor=#0000FF;" parent="1" vertex="1">
                    <mxGeometry x="1490" y="2890" width="20" height="20" as="geometry"/>
                </mxCell>
                <mxCell id="117" value="2" style="edgeStyle=none;html=1;fontColor=#0000FF;strokeColor=#0000FF;endArrow=none;endFill=0;strokeWidth=1;" parent="1" source="118" target="119" edge="1">
                    <mxGeometry relative="1" as="geometry"/>
                </mxCell>
                <mxCell id="118" value="&lt;font&gt;e&lt;/font&gt;" style="ellipse;whiteSpace=wrap;html=1;aspect=fixed;labelBackgroundColor=none;fontFamily=Helvetica;fontColor=#0000FF;align=center;strokeColor=#0000FF;" parent="1" vertex="1">
                    <mxGeometry x="1618" y="2822" width="20" height="20" as="geometry"/>
                </mxCell>
                <mxCell id="119" value="&lt;font&gt;f&lt;/font&gt;" style="ellipse;whiteSpace=wrap;html=1;aspect=fixed;labelBackgroundColor=none;fontFamily=Helvetica;fontColor=#0000FF;align=center;strokeColor=#0000FF;" parent="1" vertex="1">
                    <mxGeometry x="1618" y="2888" width="20" height="20" as="geometry"/>
                </mxCell>
                <mxCell id="120" value="&lt;font&gt;a&lt;/font&gt;" style="ellipse;whiteSpace=wrap;html=1;aspect=fixed;labelBackgroundColor=none;fontFamily=Helvetica;fontColor=#FF8000;align=center;strokeColor=#FF8000;" parent="1" vertex="1">
                    <mxGeometry x="1700" y="2683" width="20" height="20" as="geometry"/>
                </mxCell>
                <mxCell id="121" value="2" style="edgeStyle=none;html=1;fontFamily=Helvetica;fontColor=#FF8000;endArrow=none;endFill=0;strokeColor=#FF8000;strokeWidth=1;align=center;" parent="1" source="123" target="120" edge="1">
                    <mxGeometry relative="1" as="geometry"/>
                </mxCell>
                <mxCell id="122" value="6" style="edgeStyle=orthogonalEdgeStyle;html=1;fontColor=#FF8000;endArrow=none;endFill=0;strokeColor=#FF8000;strokeWidth=1;" parent="1" source="123" target="126" edge="1">
                    <mxGeometry relative="1" as="geometry">
                        <Array as="points">
                            <mxPoint x="1812" y="2772"/>
                            <mxPoint x="1812" y="2827"/>
                        </Array>
                    </mxGeometry>
                </mxCell>
                <mxCell id="123" value="&lt;font&gt;b&lt;/font&gt;" style="ellipse;whiteSpace=wrap;html=1;aspect=fixed;labelBackgroundColor=none;fontFamily=Helvetica;fontColor=#FF8000;align=center;strokeColor=#FF8000;" parent="1" vertex="1">
                    <mxGeometry x="1700" y="2752" width="20" height="20" as="geometry"/>
                </mxCell>
                <mxCell id="124" value="1" style="edgeStyle=none;html=1;fontColor=#FF8000;strokeColor=#FF8000;endArrow=none;endFill=0;strokeWidth=1;" parent="1" source="126" target="127" edge="1">
                    <mxGeometry relative="1" as="geometry"/>
                </mxCell>
                <mxCell id="125" value="2" style="edgeStyle=orthogonalEdgeStyle;html=1;fontColor=#FF8000;endArrow=none;endFill=0;strokeColor=#FF8000;strokeWidth=1;" parent="1" target="128" edge="1">
                    <mxGeometry relative="1" as="geometry">
                        <mxPoint x="1824" y="2834" as="sourcePoint"/>
                        <Array as="points">
                            <mxPoint x="1818" y="2834"/>
                        </Array>
                    </mxGeometry>
                </mxCell>
                <mxCell id="126" value="&lt;font&gt;e&lt;/font&gt;" style="ellipse;whiteSpace=wrap;html=1;aspect=fixed;labelBackgroundColor=none;fontFamily=Helvetica;fontColor=#FF8000;align=center;strokeColor=#FF8000;" parent="1" vertex="1">
                    <mxGeometry x="1814" y="2824" width="20" height="20" as="geometry"/>
                </mxCell>
                <mxCell id="127" value="&lt;font&gt;g&lt;/font&gt;" style="ellipse;whiteSpace=wrap;html=1;aspect=fixed;labelBackgroundColor=none;fontFamily=Helvetica;fontColor=#FF8000;align=center;strokeColor=#FF8000;" parent="1" vertex="1">
                    <mxGeometry x="1873" y="2824" width="20" height="20" as="geometry"/>
                </mxCell>
                <mxCell id="128" value="&lt;font&gt;f&lt;/font&gt;" style="ellipse;whiteSpace=wrap;html=1;aspect=fixed;labelBackgroundColor=none;fontFamily=Helvetica;fontColor=#FF8000;align=center;strokeColor=#FF8000;" parent="1" vertex="1">
                    <mxGeometry x="1814" y="2890" width="20" height="20" as="geometry"/>
                </mxCell>
                <mxCell id="166" value="Definition may change depending on what is/are considered possible to change in the design" style="shape=display;whiteSpace=wrap;html=1;fontSize=12;size=0.17647058823529413;direction=west;" parent="1" vertex="1">
                    <mxGeometry x="2688" y="3140" width="172" height="69" as="geometry"/>
                </mxCell>
                <mxCell id="170" value="" style="edgeStyle=none;html=1;startArrow=none;startFill=0;endArrow=classicThin;endFill=1;labelBackgroundColor=none;strokeWidth=1;" parent="1" source="171" target="200" edge="1">
                    <mxGeometry relative="1" as="geometry">
                        <mxPoint x="2558" y="5415" as="targetPoint"/>
                    </mxGeometry>
                </mxCell>
                <mxCell id="171" value="(all) street &lt;br&gt;networks" style="strokeWidth=1;html=1;shape=mxgraph.flowchart.direct_data;whiteSpace=wrap;align=center;labelBackgroundColor=none;" parent="1" vertex="1">
                    <mxGeometry x="2413" y="5385" width="100" height="60" as="geometry"/>
                </mxCell>
                <mxCell id="174" value="" style="strokeWidth=1;html=1;shape=mxgraph.flowchart.annotation_2;align=left;labelPosition=right;pointerEvents=1;labelBackgroundColor=none;" parent="1" vertex="1">
                    <mxGeometry x="2353" y="5335" width="50" height="95" as="geometry"/>
                </mxCell>
                <mxCell id="178" value="" style="edgeStyle=none;html=1;startArrow=none;startFill=0;endArrow=classicThin;endFill=1;labelBackgroundColor=none;strokeWidth=1;" parent="1" source="200" target="181" edge="1">
                    <mxGeometry relative="1" as="geometry">
                        <mxPoint x="2668" y="5415" as="sourcePoint"/>
                    </mxGeometry>
                </mxCell>
                <mxCell id="179" value="Bike&lt;br&gt;network" style="shape=parallelogram;html=1;strokeWidth=1;perimeter=parallelogramPerimeter;whiteSpace=wrap;rounded=1;arcSize=12;size=0.23;labelBackgroundColor=none;strokeColor=#FF3333;" parent="1" vertex="1">
                    <mxGeometry x="2844" y="5597" width="80" height="40" as="geometry"/>
                </mxCell>
                <mxCell id="180" style="edgeStyle=none;html=1;fontSize=12;startArrow=none;startFill=0;endArrow=classicThin;endFill=1;labelBackgroundColor=none;strokeWidth=1;" parent="1" source="181" target="202" edge="1">
                    <mxGeometry relative="1" as="geometry"/>
                </mxCell>
                <mxCell id="181" value="$$G_{base}$$" style="shape=parallelogram;html=1;strokeWidth=1;perimeter=parallelogramPerimeter;whiteSpace=wrap;rounded=1;arcSize=12;size=0.23;labelBackgroundColor=none;strokeColor=#FF3333;" parent="1" vertex="1">
                    <mxGeometry x="2780.5" y="5400" width="67" height="30" as="geometry"/>
                </mxCell>
                <mxCell id="182" value="Walk&lt;br&gt;network" style="shape=parallelogram;html=1;strokeWidth=1;perimeter=parallelogramPerimeter;whiteSpace=wrap;rounded=1;arcSize=12;size=0.23;labelBackgroundColor=none;strokeColor=#FF3333;" parent="1" vertex="1">
                    <mxGeometry x="2683" y="5597" width="80" height="40" as="geometry"/>
                </mxCell>
                <mxCell id="187" value="" style="shape=curlyBracket;whiteSpace=wrap;html=1;rounded=1;flipH=1;rotation=-90;size=0.5;labelBackgroundColor=none;strokeWidth=1;" parent="1" vertex="1">
                    <mxGeometry x="2793.69" y="5482" width="40.62" height="179.37" as="geometry"/>
                </mxCell>
                <mxCell id="188" value="Population&lt;br&gt;density" style="strokeWidth=1;html=1;shape=mxgraph.flowchart.direct_data;whiteSpace=wrap;align=center;labelBackgroundColor=none;" parent="1" vertex="1">
                    <mxGeometry x="2413" y="5126" width="100" height="60" as="geometry"/>
                </mxCell>
                <mxCell id="189" value="Disadvantage&lt;br&gt;score" style="strokeWidth=1;html=1;shape=mxgraph.flowchart.direct_data;whiteSpace=wrap;align=center;labelBackgroundColor=none;" parent="1" vertex="1">
                    <mxGeometry x="2413" y="5196" width="100" height="60" as="geometry"/>
                </mxCell>
                <mxCell id="194" style="edgeStyle=none;html=1;startArrow=none;startFill=0;endArrow=classicThin;endFill=1;labelBackgroundColor=none;strokeWidth=1;" parent="1" source="195" target="204" edge="1">
                    <mxGeometry relative="1" as="geometry"/>
                </mxCell>
                <mxCell id="195" value="Amenities" style="strokeWidth=1;html=1;shape=mxgraph.flowchart.direct_data;whiteSpace=wrap;align=center;labelBackgroundColor=none;" parent="1" vertex="1">
                    <mxGeometry x="2413" y="5305" width="100" height="60" as="geometry"/>
                </mxCell>
                <mxCell id="196" style="edgeStyle=none;html=1;exitX=0.1;exitY=0.5;exitDx=0;exitDy=0;exitPerimeter=0;startArrow=none;startFill=0;endArrow=classicThin;endFill=1;labelBackgroundColor=none;strokeWidth=1;" parent="1" source="197" target="199" edge="1">
                    <mxGeometry relative="1" as="geometry"/>
                </mxCell>
                <mxCell id="197" value="" style="shape=curlyBracket;whiteSpace=wrap;html=1;rounded=1;flipH=1;labelBackgroundColor=none;strokeWidth=1;" parent="1" vertex="1">
                    <mxGeometry x="2518" y="5150" width="30" height="100" as="geometry"/>
                </mxCell>
                <mxCell id="198" style="edgeStyle=none;html=1;fontSize=12;startArrow=none;startFill=0;endArrow=classicThin;endFill=1;labelBackgroundColor=none;strokeWidth=1;" parent="1" source="199" target="209" edge="1">
                    <mxGeometry relative="1" as="geometry"/>
                </mxCell>
                <mxCell id="199" value="&lt;span style=&quot;font-family: &amp;quot;tahoma&amp;quot;&quot;&gt;Calculate vulnerability score&lt;/span&gt;" style="rounded=1;whiteSpace=wrap;html=1;absoluteArcSize=1;arcSize=14;strokeWidth=1;fillColor=none;labelBackgroundColor=none;" parent="1" vertex="1">
                    <mxGeometry x="2578" y="5165" width="125" height="70" as="geometry"/>
                </mxCell>
                <mxCell id="200" value="&lt;div style=&quot;color: rgb(0, 0, 0); font-family: tahoma; font-size: 12px; font-style: normal; font-weight: 700; letter-spacing: normal; text-align: center; text-indent: 0px; text-transform: none; word-spacing: 0px;&quot;&gt;&lt;span style=&quot;font-weight: normal&quot;&gt;Simplify network&lt;/span&gt;&lt;/div&gt;&lt;div style=&quot;color: rgb(0, 0, 0); font-family: tahoma; font-size: 12px; font-style: normal; font-weight: 700; letter-spacing: normal; text-align: center; text-indent: 0px; text-transform: none; word-spacing: 0px;&quot;&gt;&lt;span style=&quot;font-weight: normal&quot;&gt;(consolidate_ intersections)&lt;/span&gt;&lt;/div&gt;" style="rounded=1;whiteSpace=wrap;html=1;absoluteArcSize=1;arcSize=14;strokeWidth=1;fillColor=none;labelBackgroundColor=none;" parent="1" vertex="1">
                    <mxGeometry x="2578" y="5380" width="125" height="70" as="geometry"/>
                </mxCell>
                <mxCell id="202" value="&lt;div style=&quot;color: rgb(0, 0, 0); font-family: tahoma; font-size: 12px; font-style: normal; font-weight: 700; letter-spacing: normal; text-align: center; text-indent: 0px; text-transform: none; word-spacing: 0px;&quot;&gt;&lt;span style=&quot;font-family: &amp;quot;tahoma&amp;quot; ; font-weight: 400&quot;&gt;Create sub-graphs of each transport mode (OSM tags)&lt;/span&gt;&lt;br&gt;&lt;/div&gt;" style="rounded=1;whiteSpace=wrap;html=1;absoluteArcSize=1;arcSize=14;strokeWidth=1;fillColor=none;labelBackgroundColor=none;" parent="1" vertex="1">
                    <mxGeometry x="2751.5" y="5482" width="125" height="70" as="geometry"/>
                </mxCell>
                <mxCell id="203" style="edgeStyle=none;html=1;fontSize=12;startArrow=none;startFill=0;endArrow=classicThin;endFill=1;labelBackgroundColor=none;strokeWidth=1;" parent="1" source="221" target="205" edge="1">
                    <mxGeometry relative="1" as="geometry"/>
                </mxCell>
                <mxCell id="227" value="" style="edgeStyle=none;html=1;fontSize=12;strokeWidth=1;" parent="1" source="204" target="224" edge="1">
                    <mxGeometry relative="1" as="geometry"/>
                </mxCell>
                <mxCell id="204" value="&lt;div style=&quot;color: rgb(0 , 0 , 0) ; font-family: &amp;#34;tahoma&amp;#34; ; font-size: 12px ; font-style: normal ; letter-spacing: normal ; text-align: center ; text-indent: 0px ; text-transform: none ; word-spacing: 0px&quot;&gt;Assign POIs to categories&lt;br&gt;&lt;/div&gt;" style="rounded=1;whiteSpace=wrap;html=1;absoluteArcSize=1;arcSize=14;strokeWidth=1;fillColor=none;labelBackgroundColor=none;" parent="1" vertex="1">
                    <mxGeometry x="2578" y="5300" width="125" height="70" as="geometry"/>
                </mxCell>
                <mxCell id="205" value="&lt;span style=&quot;text-align: left&quot;&gt;&lt;font style=&quot;font-size: 12px&quot;&gt;$$\mathbf{P'}:=[P'_{ij}]_{n\times k}$$&lt;/font&gt;&lt;/span&gt;" style="shape=parallelogram;html=1;strokeWidth=1;perimeter=parallelogramPerimeter;whiteSpace=wrap;rounded=1;arcSize=12;size=0.23;labelBackgroundColor=none;strokeColor=#FF3333;" parent="1" vertex="1">
                    <mxGeometry x="3108" y="5312.5" width="130" height="45" as="geometry"/>
                </mxCell>
                <mxCell id="206" value="" style="edgeStyle=none;html=1;fontSize=12;startArrow=none;startFill=0;endArrow=classicThin;endFill=1;labelBackgroundColor=none;strokeWidth=1;" parent="1" source="207" target="213" edge="1">
                    <mxGeometry relative="1" as="geometry"/>
                </mxCell>
                <mxCell id="207" value="&lt;div style=&quot;color: rgb(0, 0, 0); font-family: tahoma; font-size: 12px; font-style: normal; font-weight: 700; letter-spacing: normal; text-align: center; text-indent: 0px; text-transform: none; word-spacing: 0px;&quot;&gt;&lt;span style=&quot;font-family: &amp;quot;tahoma&amp;quot; ; font-weight: 400&quot;&gt;Convert spatial distance (m) to temporal distance (s)&lt;/span&gt;&lt;br&gt;&lt;/div&gt;" style="rounded=1;whiteSpace=wrap;html=1;absoluteArcSize=1;arcSize=14;strokeWidth=1;fillColor=none;labelBackgroundColor=none;" parent="1" vertex="1">
                    <mxGeometry x="2799" y="5784" width="125" height="70" as="geometry"/>
                </mxCell>
                <mxCell id="208" value="" style="edgeStyle=none;html=1;fontSize=12;strokeWidth=1;" parent="1" source="209" target="220" edge="1">
                    <mxGeometry relative="1" as="geometry"/>
                </mxCell>
                <mxCell id="209" value="&lt;span style=&quot;text-align: left ; background-color: rgb(248 , 249 , 250)&quot;&gt;&lt;font style=&quot;font-size: 12px&quot;&gt;$$\mathbf{s}:=[s_i]_{f\times 1}$$&lt;/font&gt;&lt;/span&gt;" style="shape=parallelogram;html=1;strokeWidth=1;perimeter=parallelogramPerimeter;whiteSpace=wrap;rounded=1;arcSize=12;size=0.23;labelBackgroundColor=none;strokeColor=#4D4D4D;" parent="1" vertex="1">
                    <mxGeometry x="2738" y="5177.5" width="130" height="45" as="geometry"/>
                </mxCell>
                <mxCell id="213" value="&lt;span style=&quot;font-weight: 700&quot;&gt;$$\mathbf{w}:=[w_e]_{m\times 1}$$&lt;/span&gt;" style="shape=parallelogram;html=1;strokeWidth=1;perimeter=parallelogramPerimeter;whiteSpace=wrap;rounded=1;arcSize=12;size=0.23;labelBackgroundColor=none;strokeColor=#FF3333;" parent="1" vertex="1">
                    <mxGeometry x="2961" y="5796.5" width="130" height="45" as="geometry"/>
                </mxCell>
                <mxCell id="217" value="&lt;span style=&quot;text-align: left ; background-color: rgb(248 , 249 , 250)&quot;&gt;&lt;font style=&quot;font-size: 12px&quot;&gt;$$\mathbf{s'}:=[s'_i]_{n\times 1}$$&lt;/font&gt;&lt;/span&gt;" style="shape=parallelogram;html=1;strokeWidth=1;perimeter=parallelogramPerimeter;whiteSpace=wrap;rounded=1;arcSize=12;size=0.23;labelBackgroundColor=none;strokeColor=#FF3333;" parent="1" vertex="1">
                    <mxGeometry x="3118" y="5177.5" width="130" height="45" as="geometry"/>
                </mxCell>
                <mxCell id="219" value="" style="edgeStyle=none;html=1;fontSize=12;strokeWidth=1;" parent="1" source="220" target="217" edge="1">
                    <mxGeometry relative="1" as="geometry"/>
                </mxCell>
                <mxCell id="220" value="&lt;font face=&quot;tahoma&quot;&gt;Transform vulnerability score of spatial unit to vertex property&lt;/font&gt;" style="rounded=1;whiteSpace=wrap;html=1;absoluteArcSize=1;arcSize=14;strokeWidth=1;fillColor=none;labelBackgroundColor=none;" parent="1" vertex="1">
                    <mxGeometry x="2936" y="5165" width="125" height="70" as="geometry"/>
                </mxCell>
                <mxCell id="221" value="&lt;div style=&quot;color: rgb(0 , 0 , 0) ; font-family: &amp;#34;tahoma&amp;#34; ; font-size: 12px ; font-style: normal ; letter-spacing: normal ; text-align: center ; text-indent: 0px ; text-transform: none ; word-spacing: 0px&quot;&gt;&lt;span&gt;Assign POIs to&amp;nbsp;&lt;/span&gt;&lt;br&gt;&lt;/div&gt;&lt;div style=&quot;color: rgb(0 , 0 , 0) ; font-family: &amp;#34;tahoma&amp;#34; ; font-size: 12px ; font-style: normal ; letter-spacing: normal ; text-align: center ; text-indent: 0px ; text-transform: none ; word-spacing: 0px&quot;&gt;&lt;div&gt;nearest vertices (nearest_neighbor)&lt;/div&gt;&lt;/div&gt;" style="rounded=1;whiteSpace=wrap;html=1;absoluteArcSize=1;arcSize=14;strokeWidth=1;fillColor=none;labelBackgroundColor=none;" parent="1" vertex="1">
                    <mxGeometry x="2936" y="5300" width="125" height="70" as="geometry"/>
                </mxCell>
                <mxCell id="228" value="" style="edgeStyle=none;html=1;fontSize=12;strokeWidth=1;" parent="1" source="224" target="221" edge="1">
                    <mxGeometry relative="1" as="geometry"/>
                </mxCell>
                <mxCell id="224" value="&lt;span style=&quot;text-align: left&quot;&gt;&lt;font style=&quot;font-size: 12px&quot;&gt;$$\mathbf{P}:=[P_{ij}]_{o\times k}$$&lt;/font&gt;&lt;/span&gt;" style="shape=parallelogram;html=1;strokeWidth=1;perimeter=parallelogramPerimeter;whiteSpace=wrap;rounded=1;arcSize=12;size=0.23;labelBackgroundColor=none;strokeColor=#4D4D4D;" parent="1" vertex="1">
                    <mxGeometry x="2738" y="5312.5" width="130" height="45" as="geometry"/>
                </mxCell>
                <mxCell id="229" value="&lt;font style=&quot;font-size: 12px&quot;&gt;&lt;b&gt;Vulnerability Score of Spatial Unit to Vertex Property&lt;/b&gt;&lt;br&gt;&lt;/font&gt;" style="rounded=0;whiteSpace=wrap;html=1;fontFamily=Helvetica;fontSize=14;fontColor=#4D4D4D;strokeColor=#4D4D4D;strokeWidth=1;fillColor=none;align=left;" parent="1" vertex="1">
                    <mxGeometry x="1140" y="2958" width="440" height="32" as="geometry"/>
                </mxCell>
                <mxCell id="230" value="&lt;span style=&quot;font-weight: normal&quot;&gt;&lt;font style=&quot;font-size: 16px&quot;&gt;$$\mathbf{s'}= \mathbf{B}\mathbf{s} $$&lt;/font&gt;&lt;/span&gt;" style="text;html=1;align=left;verticalAlign=middle;resizable=0;points=[];autosize=1;strokeColor=none;fillColor=none;fontSize=20;fontFamily=Helvetica;fontColor=#000000;fontStyle=1" parent="1" vertex="1">
                    <mxGeometry x="1140" y="3000" width="290" height="30" as="geometry"/>
                </mxCell>
                <mxCell id="233" value="$$ m' = \frac{1}{2} \left(\begin{bmatrix}&amp;nbsp;&lt;br&gt;1&amp;amp;1&amp;amp;1&amp;amp;1&amp;amp;1&amp;amp;1&amp;amp;1\\&lt;br&gt;\end{bmatrix} \cdot&lt;br&gt;\left( \left( \begin{bmatrix}&amp;nbsp;&lt;br&gt;0&amp;amp;1&amp;amp;0&amp;amp;0&amp;amp;0&amp;amp;0&amp;amp;0\\ &lt;br&gt;1&amp;amp;0&amp;amp;1&amp;amp;0&amp;amp;1&amp;amp;0&amp;amp;0\\&lt;br&gt;0&amp;amp;1&amp;amp;0&amp;amp;1&amp;amp;1&amp;amp;0&amp;amp;0\\&lt;br&gt;0&amp;amp;0&amp;amp;1&amp;amp;0&amp;amp;0&amp;amp;0&amp;amp;0\\&lt;br&gt;0&amp;amp;1&amp;amp;1&amp;amp;0&amp;amp;0&amp;amp;1&amp;amp;1\\&lt;br&gt;0&amp;amp;0&amp;amp;0&amp;amp;0&amp;amp;1&amp;amp;0&amp;amp;0\\&lt;br&gt;0&amp;amp;0&amp;amp;0&amp;amp;0&amp;amp;1&amp;amp;0&amp;amp;0\\&lt;br&gt;\end{bmatrix} - &lt;br&gt;\begin{bmatrix}&amp;nbsp;&lt;br&gt;0&amp;amp;1&amp;amp;0&amp;amp;0&amp;amp;0&amp;amp;0&amp;amp;0\\&lt;br&gt;1&amp;amp;0&amp;amp;0&amp;amp;0&amp;amp;1&amp;amp;0&amp;amp;0\\&lt;br&gt;0&amp;amp;0&amp;amp;0&amp;amp;0&amp;amp;0&amp;amp;0&amp;amp;0\\&lt;br&gt;0&amp;amp;0&amp;amp;0&amp;amp;0&amp;amp;0&amp;amp;0&amp;amp;0\\&lt;br&gt;0&amp;amp;1&amp;amp;0&amp;amp;0&amp;amp;0&amp;amp;1&amp;amp;1\\&lt;br&gt;0&amp;amp;0&amp;amp;0&amp;amp;0&amp;amp;1&amp;amp;0&amp;amp;0\\&lt;br&gt;0&amp;amp;0&amp;amp;0&amp;amp;0&amp;amp;1&amp;amp;0&amp;amp;0\\\end{bmatrix} \right) \cdot &lt;br&gt;\begin{bmatrix}&amp;nbsp;&lt;br&gt;1\\&lt;br&gt;1\\&lt;br&gt;1\\&lt;br&gt;1\\&lt;br&gt;1\\&lt;br&gt;1\\&lt;br&gt;1\\&lt;br&gt;\end{bmatrix} \right) \right) $$" style="text;html=1;align=left;verticalAlign=middle;resizable=0;points=[];autosize=1;strokeColor=none;fillColor=none;fontFamily=Helvetica;fontColor=#4D4D4D;" parent="1" vertex="1">
                    <mxGeometry x="1134" y="3438" width="245" height="410" as="geometry"/>
                </mxCell>
                <mxCell id="237" value="$$\begin{bmatrix}&amp;nbsp;&lt;br&gt;0.016\\ &lt;br&gt;0.016\\&lt;br&gt;0.016\\&lt;br&gt;0.016\\&lt;br&gt;0.009\\&lt;br&gt;0.009\\&lt;br&gt;0.009\\&lt;br&gt;\end{bmatrix} = $$" style="text;html=1;align=left;verticalAlign=middle;resizable=0;points=[];autosize=1;strokeColor=none;fillColor=none;fontFamily=Helvetica;fontColor=#4D4D4D;" parent="1" vertex="1">
                    <mxGeometry x="1140" y="3065" width="110" height="130" as="geometry"/>
                </mxCell>
                <mxCell id="239" value="$$\begin{bmatrix}&amp;nbsp;&lt;br&gt;1&amp;amp;0&amp;amp;0&amp;amp;0\\ &lt;br&gt;1&amp;amp;0&amp;amp;0&amp;amp;0\\&lt;br&gt;0&amp;amp;1&amp;amp;0&amp;amp;0\\&lt;br&gt;0&amp;amp;1&amp;amp;0&amp;amp;0\\&lt;br&gt;0&amp;amp;0&amp;amp;0&amp;amp;1\\&lt;br&gt;0&amp;amp;0&amp;amp;0&amp;amp;1\\&lt;br&gt;0&amp;amp;0&amp;amp;0&amp;amp;1\\&lt;br&gt;\end{bmatrix} \cdot\begin{bmatrix}&amp;nbsp;&lt;br&gt;0.016\\&lt;br&gt;0.016\\&lt;br&gt;0.009\\&lt;br&gt;0.009\\&lt;br&gt;\end{bmatrix}&lt;br&gt;$$" style="text;html=1;align=left;verticalAlign=middle;resizable=0;points=[];autosize=1;strokeColor=none;fillColor=none;fontFamily=Helvetica;fontColor=#4D4D4D;" parent="1" vertex="1">
                    <mxGeometry x="1241" y="3020" width="200" height="220" as="geometry"/>
                </mxCell>
                <mxCell id="240" value="&lt;font style=&quot;font-size: 12px&quot;&gt;&lt;b&gt;POI to Vertex Property&lt;/b&gt;&lt;br&gt;&lt;/font&gt;" style="rounded=0;whiteSpace=wrap;html=1;fontFamily=Helvetica;fontSize=14;fontColor=#4D4D4D;strokeColor=#4D4D4D;strokeWidth=1;fillColor=none;align=left;" parent="1" vertex="1">
                    <mxGeometry x="1643" y="2958" width="440" height="32" as="geometry"/>
                </mxCell>
                <mxCell id="241" value="&lt;span style=&quot;font-weight: normal&quot;&gt;&lt;font style=&quot;font-size: 16px&quot;&gt;$$\mathbf{P'}= \mathbf{C} \mathbf{P} $$&lt;/font&gt;&lt;/span&gt;" style="text;html=1;align=left;verticalAlign=middle;resizable=0;points=[];autosize=1;strokeColor=none;fillColor=none;fontSize=20;fontFamily=Helvetica;fontColor=#000000;fontStyle=1" parent="1" vertex="1">
                    <mxGeometry x="1643" y="3000" width="300" height="30" as="geometry"/>
                </mxCell>
                <mxCell id="242" value="$$\begin{bmatrix}&amp;nbsp;&lt;br&gt;0&amp;amp;0\\ &lt;br&gt;0&amp;amp;0\\&lt;br&gt;1&amp;amp;0\\&lt;br&gt;0&amp;amp;0\\&lt;br&gt;0&amp;amp;0\\&lt;br&gt;0&amp;amp;1\\&lt;br&gt;1&amp;amp;0\\&lt;br&gt;\end{bmatrix} = $$" style="text;html=1;align=left;verticalAlign=middle;resizable=0;points=[];autosize=1;strokeColor=none;fillColor=none;fontFamily=Helvetica;fontColor=#4D4D4D;" parent="1" vertex="1">
                    <mxGeometry x="1643" y="3065" width="108" height="130" as="geometry"/>
                </mxCell>
                <mxCell id="243" value="$$\begin{bmatrix}&amp;nbsp;&lt;br&gt;0&amp;amp;0&amp;amp;0\\ &lt;br&gt;0&amp;amp;0&amp;amp;0\\&lt;br&gt;1&amp;amp;0&amp;amp;0\\&lt;br&gt;0&amp;amp;0&amp;amp;0\\&lt;br&gt;0&amp;amp;0&amp;amp;0\\&lt;br&gt;0&amp;amp;0&amp;amp;1\\&lt;br&gt;0&amp;amp;1&amp;amp;0\\&lt;br&gt;\end{bmatrix} \cdot\begin{bmatrix}&amp;nbsp;&lt;br&gt;1&amp;amp;0\\&lt;br&gt;1&amp;amp;0\\&lt;br&gt;0&amp;amp;1\\&lt;br&gt;\end{bmatrix}&lt;br&gt;$$" style="text;html=1;align=left;verticalAlign=middle;resizable=0;points=[];autosize=1;strokeColor=none;fillColor=none;fontFamily=Helvetica;fontColor=#4D4D4D;" parent="1" vertex="1">
                    <mxGeometry x="1762.5" y="3030" width="193" height="200" as="geometry"/>
                </mxCell>
                <mxCell id="244" value="&lt;font style=&quot;font-size: 12px&quot;&gt;&lt;b&gt;G&lt;sub&gt;base&lt;/sub&gt; to G&lt;sub&gt;design&lt;/sub&gt;&lt;br&gt;&lt;/b&gt;This mathematically denotes the process of deriving possible configurations from G_base and it's adjacency matrix.&lt;/font&gt;" style="rounded=0;whiteSpace=wrap;html=1;fontFamily=Helvetica;fontSize=14;fontColor=#4D4D4D;strokeColor=#4D4D4D;strokeWidth=1;fillColor=none;align=left;" parent="1" vertex="1">
                    <mxGeometry x="1140" y="3430" width="440" height="62" as="geometry"/>
                </mxCell>
                <mxCell id="245" value="&lt;span style=&quot;font-weight: normal&quot;&gt;&lt;font style=&quot;font-size: 16px&quot;&gt;$$m'= \frac{1}{2}( \mathbf{1}^T_{1 \times n} \cdot ((A_{base} - A_{start}) \cdot \mathbf{1}_{n \times 1}))$$&lt;/font&gt;&lt;/span&gt;" style="text;html=1;align=left;verticalAlign=middle;resizable=0;points=[];autosize=1;strokeColor=none;fillColor=none;fontSize=20;fontFamily=Helvetica;fontColor=#000000;fontStyle=1" parent="1" vertex="1">
                    <mxGeometry x="1140" y="3515" width="760" height="30" as="geometry"/>
                </mxCell>
                <mxCell id="251" value="&lt;span style=&quot;font-weight: normal&quot;&gt;&lt;font style=&quot;font-size: 16px&quot;&gt;$$\mathbf{x}:=[x]_{3\times 1} \in&amp;nbsp; \left \{0, 1\right \}$$&lt;/font&gt;&lt;/span&gt;" style="text;html=1;align=left;verticalAlign=middle;resizable=0;points=[];autosize=1;strokeColor=none;fillColor=none;fontSize=20;fontFamily=Helvetica;fontColor=#000000;fontStyle=1" parent="1" vertex="1">
                    <mxGeometry x="1134" y="4362" width="390" height="30" as="geometry"/>
                </mxCell>
                <mxCell id="252" value="&lt;span style=&quot;font-weight: normal&quot;&gt;&lt;font style=&quot;font-size: 16px&quot;&gt;$$\tau= 2^{m'}$$&lt;/font&gt;&lt;/span&gt;" style="text;html=1;align=left;verticalAlign=middle;resizable=0;points=[];autosize=1;strokeColor=none;fillColor=none;fontSize=20;fontFamily=Helvetica;fontColor=#000000;fontStyle=1" parent="1" vertex="1">
                    <mxGeometry x="1134" y="4284" width="130" height="29" as="geometry"/>
                </mxCell>
                <mxCell id="253" value="&lt;span style=&quot;font-weight: normal&quot;&gt;&lt;font style=&quot;font-size: 16px&quot;&gt;$$8= 2^3$$&lt;/font&gt;&lt;/span&gt;" style="text;html=1;align=left;verticalAlign=middle;resizable=0;points=[];autosize=1;strokeColor=none;fillColor=none;fontSize=20;fontFamily=Helvetica;fontColor=#000000;fontStyle=1" parent="1" vertex="1">
                    <mxGeometry x="1134" y="4324" width="100" height="30" as="geometry"/>
                </mxCell>
                <mxCell id="255" value="&lt;font color=&quot;#ffffff&quot; style=&quot;font-size: 9px&quot;&gt;SU #3&lt;/font&gt;" style="text;html=1;align=left;verticalAlign=middle;resizable=0;points=[];autosize=1;strokeColor=none;fillColor=none;fontColor=#4D4D4D;fontSize=9;" parent="1" vertex="1">
                    <mxGeometry x="1365.5" y="2655" width="40" height="20" as="geometry"/>
                </mxCell>
                <mxCell id="256" value="&lt;font color=&quot;#ffffff&quot; style=&quot;font-size: 9px&quot;&gt;SU #2&lt;/font&gt;" style="text;html=1;align=left;verticalAlign=middle;resizable=0;points=[];autosize=1;strokeColor=none;fillColor=none;fontColor=#4D4D4D;fontSize=9;" parent="1" vertex="1">
                    <mxGeometry x="1140" y="2896" width="40" height="20" as="geometry"/>
                </mxCell>
                <mxCell id="257" value="&lt;font color=&quot;#ffffff&quot; style=&quot;font-size: 9px&quot;&gt;SU #4&lt;/font&gt;" style="text;html=1;align=left;verticalAlign=middle;resizable=0;points=[];autosize=1;strokeColor=none;fillColor=none;fontColor=#4D4D4D;fontSize=9;" parent="1" vertex="1">
                    <mxGeometry x="1365.5" y="2896" width="40" height="20" as="geometry"/>
                </mxCell>
                <mxCell id="263" value="G_base is a multigraph and each edge has a unique identity marked by its index. It has been decided that the adjacency matrix will not specify the number of edge(s) between two vertices, but only express adjacency with 1 else 0." style="rounded=0;whiteSpace=wrap;html=1;labelBackgroundColor=none;fontSize=9;strokeColor=#FF3333;" parent="1" vertex="1">
                    <mxGeometry x="1618" y="3430" width="213" height="64" as="geometry"/>
                </mxCell>
                <mxCell id="267" value="$$m' = \frac{1}{2}&amp;nbsp; \left(\begin{bmatrix}&amp;nbsp;&lt;br&gt;1&amp;amp;1&amp;amp;1&amp;amp;1&amp;amp;1&amp;amp;1&amp;amp;1\\&lt;br&gt;\end{bmatrix} \cdot&lt;br&gt;\left(&amp;nbsp; \begin{bmatrix}&amp;nbsp;&lt;br&gt;0&amp;amp;0&amp;amp;0&amp;amp;0&amp;amp;0&amp;amp;0&amp;amp;0\\ &lt;br&gt;0&amp;amp;0&amp;amp;1&amp;amp;0&amp;amp;0&amp;amp;0&amp;amp;0\\&lt;br&gt;0&amp;amp;1&amp;amp;0&amp;amp;1&amp;amp;1&amp;amp;0&amp;amp;0\\&lt;br&gt;0&amp;amp;0&amp;amp;1&amp;amp;0&amp;amp;0&amp;amp;0&amp;amp;0\\&lt;br&gt;0&amp;amp;0&amp;amp;1&amp;amp;0&amp;amp;0&amp;amp;0&amp;amp;0\\&lt;br&gt;0&amp;amp;0&amp;amp;0&amp;amp;0&amp;amp;0&amp;amp;0&amp;amp;0\\&lt;br&gt;0&amp;amp;0&amp;amp;0&amp;amp;0&amp;amp;0&amp;amp;0&amp;amp;0\\&lt;br&gt;\end{bmatrix} \cdot &lt;br&gt;\begin{bmatrix}&amp;nbsp;&lt;br&gt;1\\&lt;br&gt;1\\&lt;br&gt;1\\&lt;br&gt;1\\&lt;br&gt;1\\&lt;br&gt;1\\&lt;br&gt;1\\&lt;br&gt;\end{bmatrix} \right) \right) $$" style="text;html=1;align=left;verticalAlign=middle;resizable=0;points=[];autosize=1;strokeColor=none;fillColor=none;fontFamily=Helvetica;fontColor=#4D4D4D;" parent="1" vertex="1">
                    <mxGeometry x="1134" y="3659" width="215" height="298" as="geometry"/>
                </mxCell>
                <mxCell id="268" value="$$m' = \frac{1}{2}&amp;nbsp; \left(\begin{bmatrix}&amp;nbsp;&lt;br&gt;1&amp;amp;1&amp;amp;1&amp;amp;1&amp;amp;1&amp;amp;1&amp;amp;1\\&lt;br&gt;\end{bmatrix} \cdot&lt;br&gt;\begin{bmatrix}&amp;nbsp;&lt;br&gt;0\\&lt;br&gt;1\\&lt;br&gt;3\\&lt;br&gt;1\\&lt;br&gt;1\\&lt;br&gt;0\\&lt;br&gt;0\\&lt;br&gt;\end{bmatrix} \right) $$" style="text;html=1;align=left;verticalAlign=middle;resizable=0;points=[];autosize=1;strokeColor=none;fillColor=none;fontFamily=Helvetica;fontColor=#4D4D4D;" parent="1" vertex="1">
                    <mxGeometry x="1134" y="3887" width="215" height="172" as="geometry"/>
                </mxCell>
                <mxCell id="269" value="$$m' = \frac{1}{2}&amp;nbsp; \left(6&amp;nbsp;\right) $$" style="text;html=1;align=left;verticalAlign=middle;resizable=0;points=[];autosize=1;strokeColor=none;fillColor=none;fontFamily=Helvetica;fontColor=#4D4D4D;" parent="1" vertex="1">
                    <mxGeometry x="1136" y="4087" width="189" height="18" as="geometry"/>
                </mxCell>
                <mxCell id="270" value="$$m' = 3 $$" style="text;html=1;align=left;verticalAlign=middle;resizable=0;points=[];autosize=1;strokeColor=none;fillColor=none;fontFamily=Helvetica;fontColor=#4D4D4D;" parent="1" vertex="1">
                    <mxGeometry x="1136" y="4138" width="73" height="18" as="geometry"/>
                </mxCell>
                <mxCell id="271" value="&lt;span style=&quot;font-weight: normal&quot;&gt;&lt;font style=&quot;font-size: 16px&quot;&gt;$$A_o=A_{base} - A_{start}&lt;br&gt;$$&lt;/font&gt;&lt;/span&gt;" style="text;html=1;align=left;verticalAlign=middle;resizable=0;points=[];autosize=1;strokeColor=none;fillColor=none;fontSize=20;fontFamily=Helvetica;fontColor=#000000;fontStyle=1" parent="1" vertex="1">
                    <mxGeometry x="1613" y="3889" width="205" height="54" as="geometry"/>
                </mxCell>
                <mxCell id="273" value="" style="endArrow=classic;html=1;" parent="1" source="271" edge="1">
                    <mxGeometry width="50" height="50" relative="1" as="geometry">
                        <mxPoint x="1578" y="3823" as="sourcePoint"/>
                        <mxPoint x="1498" y="3887" as="targetPoint"/>
                        <Array as="points">
                            <mxPoint x="1498" y="3916"/>
                        </Array>
                    </mxGeometry>
                </mxCell>
                <mxCell id="281" value="&lt;font color=&quot;#ff3333&quot; style=&quot;font-size: 11px&quot;&gt;R&lt;span style=&quot;white-space: pre&quot;&gt;&#9;&lt;/span&gt;O&lt;/font&gt;" style="rounded=0;whiteSpace=wrap;html=1;labelBackgroundColor=none;fontColor=#1A1A1A;strokeColor=none;fillColor=none;" parent="1" vertex="1">
                    <mxGeometry x="1856" y="3083" width="42" height="18" as="geometry"/>
                </mxCell>
                <mxCell id="282" value="&lt;div style=&quot;text-align: left&quot;&gt;&lt;span style=&quot;font-size: 11px ; color: rgb(255 , 51 , 51)&quot;&gt;Hospital&lt;/span&gt;&lt;/div&gt;&lt;font color=&quot;#ff3333&quot; style=&quot;font-size: 11px&quot;&gt;&lt;div style=&quot;text-align: left&quot;&gt;&lt;span&gt;Pharmacy&amp;nbsp;&lt;/span&gt;&lt;/div&gt;&lt;div style=&quot;text-align: left&quot;&gt;&lt;span&gt;Restaurant&lt;/span&gt;&lt;/div&gt;&lt;/font&gt;" style="rounded=0;whiteSpace=wrap;html=1;labelBackgroundColor=none;fontColor=#1A1A1A;strokeColor=none;fillColor=none;" parent="1" vertex="1">
                    <mxGeometry x="1898" y="3107" width="69" height="46" as="geometry"/>
                </mxCell>
                <mxCell id="283" value="&lt;font color=&quot;#ff3333&quot;&gt;&lt;span style=&quot;font-size: 11px&quot;&gt;H&amp;nbsp; &amp;nbsp; &amp;nbsp;P&amp;nbsp; &amp;nbsp; &amp;nbsp;R&lt;/span&gt;&lt;/font&gt;" style="rounded=0;whiteSpace=wrap;html=1;labelBackgroundColor=none;fontColor=#1A1A1A;strokeColor=none;fillColor=none;" parent="1" vertex="1">
                    <mxGeometry x="1767" y="3043" width="69" height="18" as="geometry"/>
                </mxCell>
                <mxCell id="284" value="&lt;span style=&quot;font-weight: normal&quot;&gt;&lt;font style=&quot;font-size: 16px&quot;&gt;$$\mathbf{D_k}:=[D_{ij}]_{n\times o_k}$$&lt;/font&gt;&lt;/span&gt;" style="text;html=1;align=left;verticalAlign=middle;resizable=0;points=[];autosize=1;strokeColor=none;fillColor=none;fontSize=20;fontFamily=Helvetica;fontColor=#000000;fontStyle=1" parent="1" vertex="1">
                    <mxGeometry x="2239" y="3436" width="310" height="30" as="geometry"/>
                </mxCell>
                <mxCell id="285" value="&lt;span style=&quot;font-weight: normal&quot;&gt;&lt;font style=&quot;font-size: 16px&quot;&gt;$$\mathbf{d}:=[d_{i}]_{n\times 1}$$&lt;/font&gt;&lt;/span&gt;" style="text;html=1;align=left;verticalAlign=middle;resizable=0;points=[];autosize=1;strokeColor=none;fillColor=none;fontSize=20;fontFamily=Helvetica;fontColor=#000000;fontStyle=1" parent="1" vertex="1">
                    <mxGeometry x="2239" y="3505" width="260" height="30" as="geometry"/>
                </mxCell>
                <mxCell id="288" value="numbers.min (axis =1) - to get the minimum across row (closest POI out of others in &lt;u&gt;one&lt;/u&gt; category)" style="text;html=1;align=left;verticalAlign=middle;resizable=0;points=[];autosize=1;strokeColor=none;fillColor=none;fontSize=12;fontColor=#FF3333;" parent="1" vertex="1">
                    <mxGeometry x="2239" y="3476" width="531" height="18" as="geometry"/>
                </mxCell>
                <mxCell id="289" value="&lt;span style=&quot;font-weight: normal&quot;&gt;&lt;font style=&quot;font-size: 16px&quot;&gt;$$\mathbf{D}:=[D_{ij}]_{n\times k}$$&lt;/font&gt;&lt;/span&gt;" style="text;html=1;align=left;verticalAlign=middle;resizable=0;points=[];autosize=1;strokeColor=none;fillColor=none;fontSize=20;fontFamily=Helvetica;fontColor=#000000;fontStyle=1" parent="1" vertex="1">
                    <mxGeometry x="2240" y="3568" width="270" height="30" as="geometry"/>
                </mxCell>
                <mxCell id="290" value="&lt;span style=&quot;font-weight: normal&quot;&gt;&lt;font style=&quot;font-size: 16px&quot;&gt;$$\boldsymbol{\alpha}:=[\alpha_{i}]_{n\times 1}$$&lt;/font&gt;&lt;/span&gt;" style="text;html=1;align=left;verticalAlign=middle;resizable=0;points=[];autosize=1;strokeColor=none;fillColor=none;fontSize=20;fontFamily=Helvetica;fontColor=#000000;fontStyle=1" parent="1" vertex="1">
                    <mxGeometry x="2240" y="3636" width="359" height="29" as="geometry"/>
                </mxCell>
                <mxCell id="291" value="concatenate all vectors (there should be k number of d') into matrix D" style="text;html=1;align=left;verticalAlign=middle;resizable=0;points=[];autosize=1;strokeColor=none;fillColor=none;fontSize=12;fontColor=#FF3333;" parent="1" vertex="1">
                    <mxGeometry x="2239" y="3544" width="377" height="18" as="geometry"/>
                </mxCell>
                <mxCell id="292" value="all-pair shortest path from all nodes to POIs in one category" style="text;html=1;align=left;verticalAlign=middle;resizable=0;points=[];autosize=1;strokeColor=none;fillColor=none;fontSize=12;fontColor=#FF3333;" parent="1" vertex="1">
                    <mxGeometry x="2239" y="3412" width="326" height="18" as="geometry"/>
                </mxCell>
                <mxCell id="293" value="Average across row of D to get the average shortest path across all categories = accessibility score" style="text;html=1;align=left;verticalAlign=middle;resizable=0;points=[];autosize=1;strokeColor=none;fillColor=none;fontSize=12;fontColor=#FF3333;" parent="1" vertex="1">
                    <mxGeometry x="2239" y="3612" width="537" height="18" as="geometry"/>
                </mxCell>
                <mxCell id="294" value="o_k = number of poi in one category&amp;nbsp;&lt;br&gt;k = number of category" style="text;html=1;align=center;verticalAlign=middle;resizable=0;points=[];autosize=1;strokeColor=none;fillColor=none;" parent="1" vertex="1">
                    <mxGeometry x="2594" y="3412" width="205" height="32" as="geometry"/>
                </mxCell>
                <mxCell id="298" value="" style="edgeStyle=none;html=1;" parent="1" source="295" target="371" edge="1">
                    <mxGeometry relative="1" as="geometry"/>
                </mxCell>
                <mxCell id="295" value="Calculate shortest path from vertices to all POIs in 1 POI category" style="rounded=0;whiteSpace=wrap;html=1;" parent="1" vertex="1">
                    <mxGeometry x="2440" y="3860" width="160" height="70" as="geometry"/>
                </mxCell>
                <mxCell id="304" value="" style="edgeStyle=none;html=1;" parent="1" source="296" target="373" edge="1">
                    <mxGeometry relative="1" as="geometry"/>
                </mxCell>
                <mxCell id="296" value="Select the closest POI in 1 POI category for each vertex" style="rounded=0;whiteSpace=wrap;html=1;" parent="1" vertex="1">
                    <mxGeometry x="2441.25" y="4030" width="160" height="70" as="geometry"/>
                </mxCell>
                <mxCell id="322" value="" style="edgeStyle=none;html=1;" parent="1" source="297" target="375" edge="1">
                    <mxGeometry relative="1" as="geometry"/>
                </mxCell>
                <mxCell id="297" value="Concatenate all vector d" style="rounded=0;whiteSpace=wrap;html=1;" parent="1" vertex="1">
                    <mxGeometry x="2618.5" y="4292" width="160" height="70" as="geometry"/>
                </mxCell>
                <mxCell id="302" value="" style="edgeStyle=none;html=1;" parent="1" source="301" target="295" edge="1">
                    <mxGeometry relative="1" as="geometry"/>
                </mxCell>
                <mxCell id="301" value="$$G_{design}$$" style="shape=parallelogram;perimeter=parallelogramPerimeter;whiteSpace=wrap;html=1;fixedSize=1;rounded=0;" parent="1" vertex="1">
                    <mxGeometry x="2470" y="3788" width="101" height="40" as="geometry"/>
                </mxCell>
                <mxCell id="307" value="" style="edgeStyle=none;html=1;" parent="1" source="303" target="295" edge="1">
                    <mxGeometry relative="1" as="geometry">
                        <mxPoint x="2363.9736301459675" y="4149.350983592771" as="targetPoint"/>
                        <Array as="points">
                            <mxPoint x="2410" y="4240"/>
                            <mxPoint x="2410" y="3895"/>
                        </Array>
                    </mxGeometry>
                </mxCell>
                <mxCell id="315" value="" style="edgeStyle=none;html=1;" parent="1" source="303" target="314" edge="1">
                    <mxGeometry relative="1" as="geometry">
                        <mxPoint x="2625.9999999999995" y="4240" as="targetPoint"/>
                    </mxGeometry>
                </mxCell>
                <mxCell id="303" value="Next category?" style="rhombus;whiteSpace=wrap;html=1;rounded=0;" parent="1" vertex="1">
                    <mxGeometry x="2451.5" y="4202" width="138" height="80" as="geometry"/>
                </mxCell>
                <mxCell id="310" value="Yes" style="text;html=1;align=center;verticalAlign=middle;resizable=0;points=[];autosize=1;strokeColor=none;fillColor=none;" parent="1" vertex="1">
                    <mxGeometry x="2421.5" y="4220.25" width="30" height="18" as="geometry"/>
                </mxCell>
                <mxCell id="311" value="No" style="text;html=1;align=center;verticalAlign=middle;resizable=0;points=[];autosize=1;strokeColor=none;fillColor=none;" parent="1" vertex="1">
                    <mxGeometry x="2590" y="4220.25" width="25" height="18" as="geometry"/>
                </mxCell>
                <mxCell id="317" value="" style="edgeStyle=none;html=1;" parent="1" source="314" target="297" edge="1">
                    <mxGeometry relative="1" as="geometry"/>
                </mxCell>
                <mxCell id="314" value="$$k \; number \; of \;d$$" style="shape=parallelogram;perimeter=parallelogramPerimeter;whiteSpace=wrap;html=1;fixedSize=1;rounded=0;" parent="1" vertex="1">
                    <mxGeometry x="2618.5" y="4220" width="157.5" height="41.75" as="geometry"/>
                </mxCell>
                <mxCell id="319" value="" style="edgeStyle=none;html=1;" parent="1" source="318" target="301" edge="1">
                    <mxGeometry relative="1" as="geometry"/>
                </mxCell>
                <mxCell id="318" value="Start" style="rounded=1;whiteSpace=wrap;html=1;" parent="1" vertex="1">
                    <mxGeometry x="2482.25" y="3725" width="76.5" height="33" as="geometry"/>
                </mxCell>
                <mxCell id="320" value="Stop" style="rounded=1;whiteSpace=wrap;html=1;" parent="1" vertex="1">
                    <mxGeometry x="2658.25" y="4630" width="76.5" height="33" as="geometry"/>
                </mxCell>
                <mxCell id="323" value="" style="edgeStyle=none;html=1;" parent="1" source="321" target="320" edge="1">
                    <mxGeometry relative="1" as="geometry">
                        <mxPoint x="2690.000000000001" y="4524" as="targetPoint"/>
                    </mxGeometry>
                </mxCell>
                <mxCell id="321" value="$$\alpha$$" style="shape=parallelogram;perimeter=parallelogramPerimeter;whiteSpace=wrap;html=1;fixedSize=1;rounded=0;" parent="1" vertex="1">
                    <mxGeometry x="2652.5" y="4560" width="88" height="39.5" as="geometry"/>
                </mxCell>
                <mxCell id="324" value="$$\max \; \frac{\Delta \alpha _{red}}{\left | \Delta \alpha _{blue} \right |+(\sigma_{fix}+\sigma_{unit}(l) )}$$" style="text;html=1;align=left;verticalAlign=middle;resizable=0;points=[];autosize=1;strokeColor=none;fillColor=none;" parent="1" vertex="1">
                    <mxGeometry x="80" y="2801" width="559" height="18" as="geometry"/>
                </mxCell>
                <mxCell id="327" value="$$\max \; \Delta \alpha _{red}&lt;br&gt;$$" style="text;html=1;align=left;verticalAlign=middle;resizable=0;points=[];autosize=1;strokeColor=none;fillColor=none;" parent="1" vertex="1">
                    <mxGeometry x="80" y="2639" width="166" height="32" as="geometry"/>
                </mxCell>
                <mxCell id="328" value="$$\min \; \left | \Delta \alpha _{blue} \right |&lt;br&gt;$$" style="text;html=1;align=left;verticalAlign=middle;resizable=0;points=[];autosize=1;strokeColor=none;fillColor=none;" parent="1" vertex="1">
                    <mxGeometry x="80" y="2679" width="233" height="32" as="geometry"/>
                </mxCell>
                <mxCell id="329" value="$$\min \; cost = x(\sigma_{fix}+l*\sigma_{unit})&amp;nbsp;&amp;nbsp;&lt;br&gt;$$" style="text;html=1;align=left;verticalAlign=middle;resizable=0;points=[];autosize=1;strokeColor=none;fillColor=none;" parent="1" vertex="1">
                    <mxGeometry x="80" y="2720" width="261" height="32" as="geometry"/>
                </mxCell>
                <mxCell id="332" value="$$= \frac{Tf(A_{start}) - Tf(A_{start}+x)}{\left |\bar{T}f(A_{start}) - \bar{T}f(A_{start}+x)\right |+(\sigma_{fix}+\left | x \right |*\sigma_{unit})}$$" style="text;html=1;align=left;verticalAlign=middle;resizable=0;points=[];autosize=1;strokeColor=none;fillColor=none;" parent="1" vertex="1">
                    <mxGeometry x="110" y="2860" width="740" height="20" as="geometry"/>
                </mxCell>
                <mxCell id="333" value="" style="rounded=0;whiteSpace=wrap;html=1;fontColor=#1A1A1A;fillColor=none;" parent="1" vertex="1">
                    <mxGeometry x="61" y="2964" width="283" height="264" as="geometry"/>
                </mxCell>
                <mxCell id="334" style="edgeStyle=none;html=1;fontColor=#1A1A1A;" parent="1" source="335" target="338" edge="1">
                    <mxGeometry relative="1" as="geometry"/>
                </mxCell>
                <mxCell id="335" value="" style="rounded=0;whiteSpace=wrap;html=1;fontColor=#1A1A1A;fillColor=none;" parent="1" vertex="1">
                    <mxGeometry x="389.5" y="3015.5" width="170" height="161" as="geometry"/>
                </mxCell>
                <mxCell id="336" style="edgeStyle=none;html=1;fontColor=#FF3333;" parent="1" source="338" target="346" edge="1">
                    <mxGeometry relative="1" as="geometry"/>
                </mxCell>
                <mxCell id="337" style="edgeStyle=none;html=1;" parent="1" source="338" target="365" edge="1">
                    <mxGeometry relative="1" as="geometry"/>
                </mxCell>
                <mxCell id="338" value="Generation&lt;br&gt;$$A_{design}, G_{design}$$" style="rounded=1;whiteSpace=wrap;html=1;absoluteArcSize=1;arcSize=14;strokeWidth=1;" parent="1" vertex="1">
                    <mxGeometry x="394" y="3238" width="163" height="85" as="geometry"/>
                </mxCell>
                <mxCell id="339" value="Nodes id" style="shape=parallelogram;html=1;strokeWidth=1;perimeter=parallelogramPerimeter;whiteSpace=wrap;rounded=1;arcSize=12;size=0.23;fontColor=#FF3333;" parent="1" vertex="1">
                    <mxGeometry x="478.5" y="3035.5" width="64" height="32" as="geometry"/>
                </mxCell>
                <mxCell id="340" value="Nodes id" style="shape=parallelogram;html=1;strokeWidth=1;perimeter=parallelogramPerimeter;whiteSpace=wrap;rounded=1;arcSize=12;size=0.23;fontColor=#3333FF;" parent="1" vertex="1">
                    <mxGeometry x="405.5" y="3035.5" width="64" height="32" as="geometry"/>
                </mxCell>
                <mxCell id="341" style="edgeStyle=none;html=1;exitX=1;exitY=0.5;exitDx=0;exitDy=0;fontColor=#1A1A1A;" parent="1" source="342" target="338" edge="1">
                    <mxGeometry relative="1" as="geometry"/>
                </mxCell>
                <mxCell id="342" value="$$x$$" style="shape=parallelogram;html=1;strokeWidth=1;perimeter=parallelogramPerimeter;whiteSpace=wrap;rounded=1;arcSize=12;size=0.23;" parent="1" vertex="1">
                    <mxGeometry x="301" y="3264.5" width="40" height="32" as="geometry"/>
                </mxCell>
                <mxCell id="343" value="$$ \alpha_{start} $$" style="shape=parallelogram;html=1;strokeWidth=1;perimeter=parallelogramPerimeter;whiteSpace=wrap;rounded=1;arcSize=12;size=0.23;fontColor=#3333FF;" parent="1" vertex="1">
                    <mxGeometry x="405.5" y="3129.5" width="64" height="32" as="geometry"/>
                </mxCell>
                <mxCell id="344" value="$$\alpha{start}$$" style="shape=parallelogram;html=1;strokeWidth=1;perimeter=parallelogramPerimeter;whiteSpace=wrap;rounded=1;arcSize=12;size=0.23;fontColor=#FF3333;" parent="1" vertex="1">
                    <mxGeometry x="469.5" y="3129.5" width="64" height="32" as="geometry"/>
                </mxCell>
                <mxCell id="345" style="edgeStyle=none;html=1;exitX=1;exitY=0.5;exitDx=0;exitDy=0;fontColor=#FF3333;" parent="1" source="346" target="348" edge="1">
                    <mxGeometry relative="1" as="geometry"/>
                </mxCell>
                <mxCell id="346" value="Calculate shortest path&lt;br&gt;$$\alpha_{design}$$" style="rounded=1;whiteSpace=wrap;html=1;absoluteArcSize=1;arcSize=14;strokeWidth=1;" parent="1" vertex="1">
                    <mxGeometry x="394.5" y="3360" width="165.5" height="80" as="geometry"/>
                </mxCell>
                <mxCell id="367" style="edgeStyle=none;html=1;entryX=0.465;entryY=0.002;entryDx=0;entryDy=0;entryPerimeter=0;" parent="1" source="365" target="348" edge="1">
                    <mxGeometry relative="1" as="geometry">
                        <mxPoint x="970" y="3260" as="sourcePoint"/>
                        <Array as="points">
                            <mxPoint x="953" y="3281"/>
                        </Array>
                    </mxGeometry>
                </mxCell>
                <mxCell id="348" value="Evaluate &lt;br&gt;&lt;span style=&quot;text-align: left&quot;&gt;$$\max \; \frac{\Delta \alpha _{red}}{\left | \Delta \alpha _{blue} \right |+(\sigma_{fix}+\sigma_{unit}(l) )}$$&lt;/span&gt;" style="rounded=1;whiteSpace=wrap;html=1;absoluteArcSize=1;arcSize=14;strokeWidth=1;" parent="1" vertex="1">
                    <mxGeometry x="840" y="3346" width="243" height="108" as="geometry"/>
                </mxCell>
                <mxCell id="350" style="edgeStyle=none;html=1;fontColor=#1A1A1A;" parent="1" source="333" target="335" edge="1">
                    <mxGeometry relative="1" as="geometry">
                        <Array as="points"/>
                        <mxPoint x="333" y="3162" as="sourcePoint"/>
                    </mxGeometry>
                </mxCell>
                <mxCell id="351" value="" style="endArrow=classic;html=1;exitX=0;exitY=0.5;exitDx=0;exitDy=0;" parent="1" source="333" edge="1">
                    <mxGeometry width="50" height="50" relative="1" as="geometry">
                        <mxPoint x="74" y="3107" as="sourcePoint"/>
                        <mxPoint x="323" y="3096" as="targetPoint"/>
                    </mxGeometry>
                </mxCell>
                <mxCell id="352" value="" style="endArrow=classic;html=1;exitX=0.5;exitY=1;exitDx=0;exitDy=0;entryX=0.583;entryY=1.111;entryDx=0;entryDy=0;entryPerimeter=0;" parent="1" source="333" target="358" edge="1">
                    <mxGeometry width="50" height="50" relative="1" as="geometry">
                        <mxPoint x="197" y="3219" as="sourcePoint"/>
                        <mxPoint x="203" y="2994" as="targetPoint"/>
                    </mxGeometry>
                </mxCell>
                <mxCell id="353" value="High accessibility&lt;br&gt;Low vulnerability" style="text;html=1;align=center;verticalAlign=middle;resizable=0;points=[];autosize=1;strokeColor=none;fillColor=none;fontColor=#3333FF;" parent="1" vertex="1">
                    <mxGeometry x="87" y="3028" width="102" height="32" as="geometry"/>
                </mxCell>
                <mxCell id="354" value="High accessibility&lt;br&gt;High vulnerability" style="text;html=1;align=center;verticalAlign=middle;resizable=0;points=[];autosize=1;strokeColor=none;fillColor=none;" parent="1" vertex="1">
                    <mxGeometry x="214" y="3028" width="102" height="32" as="geometry"/>
                </mxCell>
                <mxCell id="355" value="Low accessibility&lt;br&gt;Low vulnerability" style="text;html=1;align=center;verticalAlign=middle;resizable=0;points=[];autosize=1;strokeColor=none;fillColor=none;fontColor=#3333FF;" parent="1" vertex="1">
                    <mxGeometry x="88.5" y="3137" width="99" height="32" as="geometry"/>
                </mxCell>
                <mxCell id="356" value="Low accessibility&lt;br&gt;High vulnerability" style="text;html=1;align=center;verticalAlign=middle;resizable=0;points=[];autosize=1;strokeColor=none;fillColor=none;fontColor=#FF3333;" parent="1" vertex="1">
                    <mxGeometry x="218" y="3137" width="101" height="32" as="geometry"/>
                </mxCell>
                <mxCell id="357" value="v" style="text;html=1;align=center;verticalAlign=middle;resizable=0;points=[];autosize=1;strokeColor=none;fillColor=none;" parent="1" vertex="1">
                    <mxGeometry x="326" y="3087" width="16" height="18" as="geometry"/>
                </mxCell>
                <mxCell id="358" value="A" style="text;html=1;align=center;verticalAlign=middle;resizable=0;points=[];autosize=1;strokeColor=none;fillColor=none;" parent="1" vertex="1">
                    <mxGeometry x="192" y="2970" width="18" height="18" as="geometry"/>
                </mxCell>
                <mxCell id="359" value="&lt;span style=&quot;font-size: 12px&quot;&gt;$$ max \; $$&lt;/span&gt;" style="text;html=1;align=center;verticalAlign=middle;resizable=0;points=[];autosize=1;strokeColor=none;fillColor=none;fontSize=15;fontColor=#1A1A1A;" parent="1" vertex="1">
                    <mxGeometry x="455.5" y="3420.5" width="76" height="23" as="geometry"/>
                </mxCell>
                <mxCell id="360" value="&lt;span style=&quot;font-size: 12px&quot;&gt;$$ \beta_{improvement} $$&lt;/span&gt;" style="text;html=1;align=center;verticalAlign=middle;resizable=0;points=[];autosize=1;strokeColor=none;fillColor=none;fontSize=15;fontColor=#FF3333;" parent="1" vertex="1">
                    <mxGeometry x="477.5" y="3419" width="154" height="23" as="geometry"/>
                </mxCell>
                <mxCell id="361" value="&lt;span style=&quot;font-size: 12px&quot;&gt;$$ \beta_{improvement} $$&lt;/span&gt;" style="text;html=1;align=center;verticalAlign=middle;resizable=0;points=[];autosize=1;strokeColor=none;fillColor=none;fontSize=15;fontColor=#3333FF;" parent="1" vertex="1">
                    <mxGeometry x="564.5" y="3419" width="154" height="23" as="geometry"/>
                </mxCell>
                <mxCell id="362" value="&lt;font style=&quot;font-size: 12px&quot; color=&quot;#1a1a1a&quot;&gt;Should already have blue &amp;amp; red node distinction here&lt;/font&gt;" style="rounded=0;whiteSpace=wrap;html=1;fontSize=15;fontColor=#3333FF;strokeColor=#999999;" parent="1" vertex="1">
                    <mxGeometry x="275" y="3391.5" width="158" height="73" as="geometry"/>
                </mxCell>
                <mxCell id="363" value="$$\bar T$$" style="shape=parallelogram;html=1;strokeWidth=1;perimeter=parallelogramPerimeter;whiteSpace=wrap;rounded=1;arcSize=12;size=0.23;fontColor=#3333FF;" parent="1" vertex="1">
                    <mxGeometry x="405.5" y="3084" width="64" height="32" as="geometry"/>
                </mxCell>
                <mxCell id="364" value="$$T$$" style="shape=parallelogram;html=1;strokeWidth=1;perimeter=parallelogramPerimeter;whiteSpace=wrap;rounded=1;arcSize=12;size=0.23;fontColor=#FF3333;" parent="1" vertex="1">
                    <mxGeometry x="474.5" y="3084" width="64" height="32" as="geometry"/>
                </mxCell>
                <mxCell id="365" value="Calculate cost&lt;br&gt;&lt;span style=&quot;color: rgb(26 , 26 , 26) ; text-align: left&quot;&gt;$$cost_{design} = \sigma_{fix} + |x|* \sigma_{unit}$$&lt;/span&gt;" style="rounded=1;whiteSpace=wrap;html=1;absoluteArcSize=1;arcSize=14;strokeWidth=1;" parent="1" vertex="1">
                    <mxGeometry x="625" y="3235.5" width="194.5" height="90" as="geometry"/>
                </mxCell>
                <mxCell id="366" value="&lt;span style=&quot;color: rgb(26 , 26 , 26)&quot;&gt;$$ \alpha_{start} - \alpha_{design} = \Delta \alpha$$&lt;/span&gt;" style="text;html=1;align=left;verticalAlign=middle;resizable=0;points=[];autosize=1;strokeColor=none;fillColor=none;" parent="1" vertex="1">
                    <mxGeometry x="80" y="2590" width="285" height="18" as="geometry"/>
                </mxCell>
                <mxCell id="368" value="$$= \frac{gf(A_{start}) - gf(A_{start},x)}{\left |\bar{g}f(A_{start}) - \bar{g}f(A_{start},x)\right |+(\sigma_{fix}+ \sigma_{unit}(x^{T}1))}$$" style="text;html=1;align=left;verticalAlign=middle;resizable=0;points=[];autosize=1;strokeColor=none;fillColor=none;" parent="1" vertex="1">
                    <mxGeometry x="550" y="2721" width="700" height="20" as="geometry"/>
                </mxCell>
                <mxCell id="369" value="$$(x\odot l)^{T}1$$" style="text;html=1;align=center;verticalAlign=middle;resizable=0;points=[];autosize=1;strokeColor=none;fillColor=none;" parent="1" vertex="1">
                    <mxGeometry x="819.5" y="2767.5" width="120" height="20" as="geometry"/>
                </mxCell>
                <mxCell id="372" value="" style="edgeStyle=none;html=1;fontColor=#999999;" parent="1" source="371" target="296" edge="1">
                    <mxGeometry relative="1" as="geometry"/>
                </mxCell>
                <mxCell id="371" value="$$D_k$$" style="shape=parallelogram;perimeter=parallelogramPerimeter;whiteSpace=wrap;html=1;fixedSize=1;rounded=0;" parent="1" vertex="1">
                    <mxGeometry x="2469.5" y="3960" width="101" height="40" as="geometry"/>
                </mxCell>
                <mxCell id="374" value="" style="edgeStyle=none;html=1;fontColor=#999999;" parent="1" source="373" target="303" edge="1">
                    <mxGeometry relative="1" as="geometry"/>
                </mxCell>
                <mxCell id="373" value="$$d$$" style="shape=parallelogram;perimeter=parallelogramPerimeter;whiteSpace=wrap;html=1;fixedSize=1;rounded=0;" parent="1" vertex="1">
                    <mxGeometry x="2469.5" y="4131" width="101" height="40" as="geometry"/>
                </mxCell>
                <mxCell id="376" value="" style="edgeStyle=none;html=1;fontColor=#999999;" parent="1" source="375" target="377" edge="1">
                    <mxGeometry relative="1" as="geometry"/>
                </mxCell>
                <mxCell id="375" value="$$D$$" style="shape=parallelogram;perimeter=parallelogramPerimeter;whiteSpace=wrap;html=1;fixedSize=1;rounded=0;" parent="1" vertex="1">
                    <mxGeometry x="2646.75" y="4392" width="101" height="40" as="geometry"/>
                </mxCell>
                <mxCell id="378" value="" style="edgeStyle=none;html=1;fontColor=#999999;" parent="1" source="377" target="321" edge="1">
                    <mxGeometry relative="1" as="geometry"/>
                </mxCell>
                <mxCell id="377" value="Combine and average shortest paths from all category&amp;nbsp;" style="rounded=0;whiteSpace=wrap;html=1;" parent="1" vertex="1">
                    <mxGeometry x="2618.5" y="4460" width="160" height="70" as="geometry"/>
                </mxCell>
                <mxCell id="426" style="edgeStyle=none;html=1;fontSize=11;fontColor=#999999;" parent="1" source="387" target="423" edge="1">
                    <mxGeometry relative="1" as="geometry"/>
                </mxCell>
                <mxCell id="387" value="" style="rounded=0;whiteSpace=wrap;html=1;fontColor=#1A1A1A;fillColor=none;dashed=1;" parent="1" vertex="1">
                    <mxGeometry x="61" y="3606.75" width="283" height="264" as="geometry"/>
                </mxCell>
                <mxCell id="388" style="edgeStyle=none;html=1;fontColor=#1A1A1A;" parent="1" source="389" target="402" edge="1">
                    <mxGeometry relative="1" as="geometry">
                        <mxPoint x="654" y="3750" as="targetPoint"/>
                        <Array as="points">
                            <mxPoint x="611" y="3739"/>
                            <mxPoint x="611" y="4016"/>
                        </Array>
                    </mxGeometry>
                </mxCell>
                <mxCell id="389" value="" style="rounded=0;whiteSpace=wrap;html=1;fontColor=#1A1A1A;fillColor=none;dashed=1;" parent="1" vertex="1">
                    <mxGeometry x="392.5" y="3682" width="170" height="113.5" as="geometry"/>
                </mxCell>
                <mxCell id="390" style="edgeStyle=none;html=1;fontColor=#FF3333;" parent="1" source="392" target="400" edge="1">
                    <mxGeometry relative="1" as="geometry"/>
                </mxCell>
                <mxCell id="392" value="Generation&lt;br&gt;$$A_{design}, G_{design}$$" style="rounded=1;whiteSpace=wrap;html=1;absoluteArcSize=1;arcSize=14;strokeWidth=1;" parent="1" vertex="1">
                    <mxGeometry x="397" y="3857" width="163" height="85" as="geometry"/>
                </mxCell>
                <mxCell id="415" value="" style="edgeStyle=none;html=1;fontColor=#999999;" parent="1" source="393" target="413" edge="1">
                    <mxGeometry relative="1" as="geometry"/>
                </mxCell>
                <mxCell id="393" value="Node indices" style="shape=parallelogram;html=1;strokeWidth=1;perimeter=parallelogramPerimeter;whiteSpace=wrap;rounded=1;arcSize=12;size=0.23;fontColor=#FF3333;" parent="1" vertex="1">
                    <mxGeometry x="475.5" y="3699" width="64" height="32" as="geometry"/>
                </mxCell>
                <mxCell id="416" value="" style="edgeStyle=none;html=1;fontColor=#999999;" parent="1" source="394" target="412" edge="1">
                    <mxGeometry relative="1" as="geometry"/>
                </mxCell>
                <mxCell id="394" value="Node indices" style="shape=parallelogram;html=1;strokeWidth=1;perimeter=parallelogramPerimeter;whiteSpace=wrap;rounded=1;arcSize=12;size=0.23;fontColor=#3333FF;" parent="1" vertex="1">
                    <mxGeometry x="412" y="3699" width="64" height="32" as="geometry"/>
                </mxCell>
                <mxCell id="395" style="edgeStyle=none;html=1;exitX=1;exitY=0.5;exitDx=0;exitDy=0;fontColor=#1A1A1A;" parent="1" source="396" target="392" edge="1">
                    <mxGeometry relative="1" as="geometry"/>
                </mxCell>
                <mxCell id="396" value="$$x$$" style="shape=parallelogram;html=1;strokeWidth=1;perimeter=parallelogramPerimeter;whiteSpace=wrap;rounded=1;arcSize=12;size=0.23;" parent="1" vertex="1">
                    <mxGeometry x="304" y="3883.5" width="40" height="32" as="geometry"/>
                </mxCell>
                <mxCell id="397" value="$$ \alpha_{start} $$" style="shape=parallelogram;html=1;strokeWidth=1;perimeter=parallelogramPerimeter;whiteSpace=wrap;rounded=1;arcSize=12;size=0.23;fontColor=#3333FF;direction=west;" parent="1" vertex="1">
                    <mxGeometry x="412" y="3605.75" width="64" height="32" as="geometry"/>
                </mxCell>
                <mxCell id="398" value="$$\alpha_{start}$$" style="shape=parallelogram;html=1;strokeWidth=1;perimeter=parallelogramPerimeter;whiteSpace=wrap;rounded=1;arcSize=12;size=0.23;fontColor=#FF3333;" parent="1" vertex="1">
                    <mxGeometry x="476" y="3605.75" width="64" height="32" as="geometry"/>
                </mxCell>
                <mxCell id="399" style="edgeStyle=none;html=1;exitX=1;exitY=0.5;exitDx=0;exitDy=0;fontColor=#FF3333;" parent="1" source="400" target="402" edge="1">
                    <mxGeometry relative="1" as="geometry"/>
                </mxCell>
                <mxCell id="400" value="Calculate shortest path&lt;br&gt;$$\alpha_{design}$$" style="rounded=1;whiteSpace=wrap;html=1;absoluteArcSize=1;arcSize=14;strokeWidth=1;" parent="1" vertex="1">
                    <mxGeometry x="397" y="3993" width="165.5" height="80" as="geometry"/>
                </mxCell>
                <mxCell id="402" value="Evaluate &lt;br&gt;&lt;span style=&quot;text-align: left&quot;&gt;$$\max \; \frac{\Delta \alpha _{red}}{\left | \Delta \alpha _{blue} \right |+(\sigma_{fix}+\sigma_{unit}(l) )}$$&lt;/span&gt;" style="rounded=1;whiteSpace=wrap;html=1;absoluteArcSize=1;arcSize=14;strokeWidth=1;" parent="1" vertex="1">
                    <mxGeometry x="670" y="3979" width="243" height="108" as="geometry"/>
                </mxCell>
                <mxCell id="403" style="edgeStyle=none;html=1;fontColor=#1A1A1A;" parent="1" source="387" target="389" edge="1">
                    <mxGeometry relative="1" as="geometry">
                        <Array as="points"/>
                        <mxPoint x="336" y="3781" as="sourcePoint"/>
                    </mxGeometry>
                </mxCell>
                <mxCell id="404" value="" style="endArrow=classic;html=1;exitX=0;exitY=0.5;exitDx=0;exitDy=0;" parent="1" source="387" edge="1">
                    <mxGeometry width="50" height="50" relative="1" as="geometry">
                        <mxPoint x="74" y="3749.75" as="sourcePoint"/>
                        <mxPoint x="323" y="3738.75" as="targetPoint"/>
                    </mxGeometry>
                </mxCell>
                <mxCell id="405" value="" style="endArrow=classic;html=1;exitX=0.5;exitY=1;exitDx=0;exitDy=0;entryX=0.583;entryY=1.111;entryDx=0;entryDy=0;entryPerimeter=0;" parent="1" source="387" target="411" edge="1">
                    <mxGeometry width="50" height="50" relative="1" as="geometry">
                        <mxPoint x="197" y="3861.75" as="sourcePoint"/>
                        <mxPoint x="203" y="3636.75" as="targetPoint"/>
                    </mxGeometry>
                </mxCell>
                <mxCell id="406" value="High inaccessibility&lt;br&gt;Low vulnerability" style="text;html=1;align=center;verticalAlign=middle;resizable=0;points=[];autosize=1;strokeColor=none;fillColor=none;fontColor=#3333FF;" parent="1" vertex="1">
                    <mxGeometry x="82" y="3670.75" width="112" height="32" as="geometry"/>
                </mxCell>
                <mxCell id="407" value="High inaccessibility&lt;br&gt;High vulnerability" style="text;html=1;align=center;verticalAlign=middle;resizable=0;points=[];autosize=1;strokeColor=none;fillColor=none;fontColor=#FF3333;" parent="1" vertex="1">
                    <mxGeometry x="209" y="3670.75" width="112" height="32" as="geometry"/>
                </mxCell>
                <mxCell id="408" value="Low inaccessibility&lt;br&gt;Low vulnerability" style="text;html=1;align=center;verticalAlign=middle;resizable=0;points=[];autosize=1;strokeColor=none;fillColor=none;fontColor=#3333FF;" parent="1" vertex="1">
                    <mxGeometry x="83.5" y="3779.75" width="109" height="32" as="geometry"/>
                </mxCell>
                <mxCell id="409" value="&lt;font color=&quot;#1a1a1a&quot;&gt;Low inaccessibility&lt;br&gt;High vulnerability&lt;/font&gt;" style="text;html=1;align=center;verticalAlign=middle;resizable=0;points=[];autosize=1;strokeColor=none;fillColor=none;fontColor=#FF3333;" parent="1" vertex="1">
                    <mxGeometry x="214" y="3779.75" width="109" height="32" as="geometry"/>
                </mxCell>
                <mxCell id="410" value="v" style="text;html=1;align=center;verticalAlign=middle;resizable=0;points=[];autosize=1;strokeColor=none;fillColor=none;" parent="1" vertex="1">
                    <mxGeometry x="326" y="3729.75" width="16" height="18" as="geometry"/>
                </mxCell>
                <mxCell id="411" value="A" style="text;html=1;align=center;verticalAlign=middle;resizable=0;points=[];autosize=1;strokeColor=none;fillColor=none;" parent="1" vertex="1">
                    <mxGeometry x="192" y="3612.75" width="18" height="18" as="geometry"/>
                </mxCell>
                <mxCell id="412" value="$$\bar v$$" style="shape=parallelogram;html=1;strokeWidth=1;perimeter=parallelogramPerimeter;whiteSpace=wrap;rounded=1;arcSize=12;size=0.23;fontColor=#3333FF;" parent="1" vertex="1">
                    <mxGeometry x="412" y="3747" width="64" height="32" as="geometry"/>
                </mxCell>
                <mxCell id="413" value="$$v$$" style="shape=parallelogram;html=1;strokeWidth=1;perimeter=parallelogramPerimeter;whiteSpace=wrap;rounded=1;arcSize=12;size=0.23;fontColor=#FF3333;" parent="1" vertex="1">
                    <mxGeometry x="476" y="3747" width="64" height="32" as="geometry"/>
                </mxCell>
                <mxCell id="422" value="" style="edgeStyle=none;html=1;fontSize=11;fontColor=#999999;" parent="1" source="418" target="402" edge="1">
                    <mxGeometry relative="1" as="geometry"/>
                </mxCell>
                <mxCell id="418" value="$$x^{T}1 \; \; or \; \; (x\odot l)^{T}1$$" style="rounded=0;whiteSpace=wrap;html=1;fontColor=#1A1A1A;fillColor=none;dashed=1;fontSize=11;" parent="1" vertex="1">
                    <mxGeometry x="721.5" y="3864" width="140" height="59" as="geometry"/>
                </mxCell>
                <mxCell id="457" value="&lt;span style=&quot;font-weight: normal&quot;&gt;&lt;font style=&quot;font-size: 16px&quot;&gt;$$\mathbf{x}:=[x_i]_{m'\times 1} \in&amp;nbsp; \left \{0, 1\right \}$$&lt;/font&gt;&lt;/span&gt;" style="text;html=1;align=left;verticalAlign=middle;resizable=0;points=[];autosize=1;strokeColor=none;fillColor=none;fontSize=20;fontFamily=Helvetica;fontColor=#1A1A1A;fontStyle=1" parent="1" vertex="1">
                    <mxGeometry x="2239" y="3272" width="400" height="29" as="geometry"/>
                </mxCell>
                <mxCell id="458" value="$$= \frac{vf(A_{start}) - vf(g(x) \mid A_{start})}{\left |\bar{v}f(A_{start}) - \bar{v}f(g(x) \mid A_{start})\right |+(\sigma_{fix}+ \sigma_{unit}(x^{T}1))}$$" style="text;html=1;align=left;verticalAlign=middle;resizable=0;points=[];autosize=1;strokeColor=none;fillColor=none;" parent="1" vertex="1">
                    <mxGeometry x="550" y="2843" width="775" height="18" as="geometry"/>
                </mxCell>
                <mxCell id="459" value="$$f:\mathbb{R^{n\times n}} \mapsto\mathbb{R}$$&amp;nbsp;" style="text;html=1;align=left;verticalAlign=middle;resizable=0;points=[];autosize=1;strokeColor=none;fillColor=none;" parent="1" vertex="1">
                    <mxGeometry x="670.5" y="2605" width="275" height="18" as="geometry"/>
                </mxCell>
                <mxCell id="460" value="$$g:\mathbb{R^{m'}} \mapsto\mathbb{R^{n\times n}}$$&amp;nbsp;" style="text;html=1;align=left;verticalAlign=middle;resizable=0;points=[];autosize=1;strokeColor=none;fillColor=none;" parent="1" vertex="1">
                    <mxGeometry x="670" y="2632.5" width="305" height="18" as="geometry"/>
                </mxCell>
                <mxCell id="461" value="" style="edgeStyle=none;html=1;startArrow=none;startFill=0;endArrow=classicThin;endFill=1;labelBackgroundColor=none;" parent="1" source="462" target="491" edge="1">
                    <mxGeometry relative="1" as="geometry">
                        <mxPoint x="2551" y="6290" as="targetPoint"/>
                    </mxGeometry>
                </mxCell>
                <mxCell id="462" value="(all) street &lt;br&gt;networks" style="strokeWidth=2;html=1;shape=mxgraph.flowchart.direct_data;whiteSpace=wrap;align=center;labelBackgroundColor=none;" parent="1" vertex="1">
                    <mxGeometry x="2406" y="6260" width="100" height="60" as="geometry"/>
                </mxCell>
                <mxCell id="463" style="edgeStyle=none;html=1;startArrow=none;startFill=0;endArrow=classicThin;endFill=1;labelBackgroundColor=none;" parent="1" source="464" target="477" edge="1">
                    <mxGeometry relative="1" as="geometry"/>
                </mxCell>
                <mxCell id="464" value="Bus&lt;br&gt;GTFS" style="strokeWidth=2;html=1;shape=mxgraph.flowchart.direct_data;whiteSpace=wrap;align=center;labelBackgroundColor=none;" parent="1" vertex="1">
                    <mxGeometry x="2406" y="6460" width="100" height="60" as="geometry"/>
                </mxCell>
                <mxCell id="465" value="" style="strokeWidth=2;html=1;shape=mxgraph.flowchart.annotation_2;align=left;labelPosition=right;pointerEvents=1;labelBackgroundColor=none;" parent="1" vertex="1">
                    <mxGeometry x="2346" y="6210" width="50" height="95" as="geometry"/>
                </mxCell>
                <mxCell id="466" value="OpenStreetMap" style="text;html=1;align=right;verticalAlign=middle;resizable=0;points=[];autosize=1;strokeColor=none;fillColor=none;labelBackgroundColor=none;" parent="1" vertex="1">
                    <mxGeometry x="2241" y="6245" width="100" height="20" as="geometry"/>
                </mxCell>
                <mxCell id="467" value="OpenMobilityData" style="text;html=1;align=right;verticalAlign=middle;resizable=0;points=[];autosize=1;strokeColor=none;fillColor=none;labelBackgroundColor=none;" parent="1" vertex="1">
                    <mxGeometry x="2231" y="6480" width="110" height="20" as="geometry"/>
                </mxCell>
                <mxCell id="468" value="" style="strokeWidth=2;html=1;shape=mxgraph.flowchart.annotation_2;align=left;labelPosition=right;pointerEvents=1;labelBackgroundColor=none;" parent="1" vertex="1">
                    <mxGeometry x="2346" y="6475" width="50" height="30" as="geometry"/>
                </mxCell>
                <mxCell id="469" value="" style="edgeStyle=none;html=1;startArrow=none;startFill=0;endArrow=classicThin;endFill=1;labelBackgroundColor=none;" parent="1" source="491" target="472" edge="1">
                    <mxGeometry relative="1" as="geometry">
                        <mxPoint x="2661" y="6290" as="sourcePoint"/>
                    </mxGeometry>
                </mxCell>
                <mxCell id="470" value="Bike&lt;br&gt;network" style="shape=parallelogram;html=1;strokeWidth=2;perimeter=parallelogramPerimeter;whiteSpace=wrap;rounded=1;arcSize=12;size=0.23;labelBackgroundColor=none;strokeColor=#FF3333;" parent="1" vertex="1">
                    <mxGeometry x="3031" y="6470" width="80" height="40" as="geometry"/>
                </mxCell>
                <mxCell id="471" style="edgeStyle=none;html=1;fontSize=12;startArrow=none;startFill=0;endArrow=classicThin;endFill=1;labelBackgroundColor=none;" parent="1" source="472" target="493" edge="1">
                    <mxGeometry relative="1" as="geometry"/>
                </mxCell>
                <mxCell id="472" value="$$G$$" style="shape=parallelogram;html=1;strokeWidth=2;perimeter=parallelogramPerimeter;whiteSpace=wrap;rounded=1;arcSize=12;size=0.23;labelBackgroundColor=none;strokeColor=#FF3333;" parent="1" vertex="1">
                    <mxGeometry x="2981" y="6275" width="40" height="30" as="geometry"/>
                </mxCell>
                <mxCell id="473" value="Walk&lt;br&gt;network" style="shape=parallelogram;html=1;strokeWidth=2;perimeter=parallelogramPerimeter;whiteSpace=wrap;rounded=1;arcSize=12;size=0.23;labelBackgroundColor=none;strokeColor=#FF3333;" parent="1" vertex="1">
                    <mxGeometry x="2961" y="6470" width="80" height="40" as="geometry"/>
                </mxCell>
                <mxCell id="474" style="html=1;startArrow=none;startFill=0;endArrow=classicThin;endFill=1;labelBackgroundColor=none;" parent="1" source="475" target="477" edge="1">
                    <mxGeometry relative="1" as="geometry">
                        <mxPoint x="2821" y="6535" as="targetPoint"/>
                    </mxGeometry>
                </mxCell>
                <mxCell id="475" value="Drive&lt;br&gt;network" style="shape=parallelogram;html=1;strokeWidth=2;perimeter=parallelogramPerimeter;whiteSpace=wrap;rounded=1;arcSize=12;size=0.23;labelBackgroundColor=none;" parent="1" vertex="1">
                    <mxGeometry x="2891" y="6470" width="80" height="40" as="geometry"/>
                </mxCell>
                <mxCell id="476" value="" style="edgeStyle=none;html=1;fontSize=12;startArrow=none;startFill=0;endArrow=classicThin;endFill=1;exitX=0;exitY=0;exitDx=0;exitDy=0;labelBackgroundColor=none;" parent="1" source="477" target="507" edge="1">
                    <mxGeometry relative="1" as="geometry">
                        <Array as="points">
                            <mxPoint x="2634" y="6477"/>
                        </Array>
                    </mxGeometry>
                </mxCell>
                <mxCell id="477" value="Bus &lt;br&gt;network" style="shape=parallelogram;html=1;strokeWidth=2;perimeter=parallelogramPerimeter;whiteSpace=wrap;rounded=1;arcSize=12;size=0.23;labelBackgroundColor=none;strokeColor=#FF3333;" parent="1" vertex="1">
                    <mxGeometry x="2731" y="6470" width="80" height="40" as="geometry"/>
                </mxCell>
                <mxCell id="478" value="" style="shape=curlyBracket;whiteSpace=wrap;html=1;rounded=1;flipH=1;rotation=-90;size=0.5;labelBackgroundColor=none;" parent="1" vertex="1">
                    <mxGeometry x="2980.69" y="6355" width="40.62" height="179.37" as="geometry"/>
                </mxCell>
                <mxCell id="479" value="Pop&lt;br&gt;density" style="strokeWidth=2;html=1;shape=mxgraph.flowchart.direct_data;whiteSpace=wrap;align=center;labelBackgroundColor=none;" parent="1" vertex="1">
                    <mxGeometry x="2406" y="6005" width="100" height="60" as="geometry"/>
                </mxCell>
                <mxCell id="480" value="Disadvantage&lt;br&gt;scores" style="strokeWidth=2;html=1;shape=mxgraph.flowchart.direct_data;whiteSpace=wrap;align=center;labelBackgroundColor=none;" parent="1" vertex="1">
                    <mxGeometry x="2406" y="6075" width="100" height="60" as="geometry"/>
                </mxCell>
                <mxCell id="481" value="" style="strokeWidth=2;html=1;shape=mxgraph.flowchart.annotation_2;align=left;labelPosition=right;pointerEvents=1;labelBackgroundColor=none;" parent="1" vertex="1">
                    <mxGeometry x="2346" y="6020" width="50" height="30" as="geometry"/>
                </mxCell>
                <mxCell id="482" value="GHSL" style="text;html=1;align=right;verticalAlign=middle;resizable=0;points=[];autosize=1;strokeColor=none;fillColor=none;labelBackgroundColor=none;" parent="1" vertex="1">
                    <mxGeometry x="2291" y="6025" width="50" height="20" as="geometry"/>
                </mxCell>
                <mxCell id="483" value="" style="strokeWidth=2;html=1;shape=mxgraph.flowchart.annotation_2;align=left;labelPosition=right;pointerEvents=1;labelBackgroundColor=none;" parent="1" vertex="1">
                    <mxGeometry x="2346" y="6090" width="50" height="30" as="geometry"/>
                </mxCell>
                <mxCell id="484" value="Den Haag in Ciijfers" style="text;html=1;align=right;verticalAlign=middle;resizable=0;points=[];autosize=1;strokeColor=none;fillColor=none;labelBackgroundColor=none;" parent="1" vertex="1">
                    <mxGeometry x="2221" y="6095" width="120" height="20" as="geometry"/>
                </mxCell>
                <mxCell id="485" style="edgeStyle=none;html=1;startArrow=none;startFill=0;endArrow=classicThin;endFill=1;labelBackgroundColor=none;" parent="1" source="486" target="496" edge="1">
                    <mxGeometry relative="1" as="geometry"/>
                </mxCell>
                <mxCell id="486" value="Point of &lt;br&gt;Interest (POIs)" style="strokeWidth=2;html=1;shape=mxgraph.flowchart.direct_data;whiteSpace=wrap;align=center;labelBackgroundColor=none;" parent="1" vertex="1">
                    <mxGeometry x="2406" y="6180" width="100" height="60" as="geometry"/>
                </mxCell>
                <mxCell id="487" style="edgeStyle=none;html=1;exitX=0.1;exitY=0.5;exitDx=0;exitDy=0;exitPerimeter=0;startArrow=none;startFill=0;endArrow=classicThin;endFill=1;labelBackgroundColor=none;" parent="1" source="488" target="490" edge="1">
                    <mxGeometry relative="1" as="geometry"/>
                </mxCell>
                <mxCell id="488" value="" style="shape=curlyBracket;whiteSpace=wrap;html=1;rounded=1;flipH=1;labelBackgroundColor=none;" parent="1" vertex="1">
                    <mxGeometry x="2511" y="6025" width="30" height="100" as="geometry"/>
                </mxCell>
                <mxCell id="489" style="edgeStyle=none;html=1;fontSize=12;startArrow=none;startFill=0;endArrow=classicThin;endFill=1;labelBackgroundColor=none;" parent="1" source="490" target="501" edge="1">
                    <mxGeometry relative="1" as="geometry"/>
                </mxCell>
                <mxCell id="490" value="&lt;span style=&quot;font-family: &amp;quot;tahoma&amp;quot;&quot;&gt;Calculate vulnerability score&lt;/span&gt;" style="rounded=1;whiteSpace=wrap;html=1;absoluteArcSize=1;arcSize=14;strokeWidth=2;fillColor=none;labelBackgroundColor=none;" parent="1" vertex="1">
                    <mxGeometry x="2571" y="6040" width="125" height="70" as="geometry"/>
                </mxCell>
                <mxCell id="491" value="&lt;div style=&quot;color: rgb(0, 0, 0); font-family: tahoma; font-size: 12px; font-style: normal; font-weight: 700; letter-spacing: normal; text-align: center; text-indent: 0px; text-transform: none; word-spacing: 0px;&quot;&gt;&lt;span style=&quot;font-weight: normal&quot;&gt;Simplify network&lt;/span&gt;&lt;/div&gt;&lt;div style=&quot;color: rgb(0, 0, 0); font-family: tahoma; font-size: 12px; font-style: normal; font-weight: 700; letter-spacing: normal; text-align: center; text-indent: 0px; text-transform: none; word-spacing: 0px;&quot;&gt;&lt;span style=&quot;font-weight: normal&quot;&gt;(consolidate_ intersections)&lt;/span&gt;&lt;/div&gt;" style="rounded=1;whiteSpace=wrap;html=1;absoluteArcSize=1;arcSize=14;strokeWidth=2;fillColor=none;labelBackgroundColor=none;" parent="1" vertex="1">
                    <mxGeometry x="2571" y="6255" width="125" height="70" as="geometry"/>
                </mxCell>
                <mxCell id="492" style="edgeStyle=none;html=1;fontSize=12;startArrow=none;startFill=0;endArrow=classicThin;endFill=1;labelBackgroundColor=none;" parent="1" source="493" target="499" edge="1">
                    <mxGeometry relative="1" as="geometry"/>
                </mxCell>
                <mxCell id="493" value="&lt;div style=&quot;color: rgb(0, 0, 0); font-family: tahoma; font-size: 12px; font-style: normal; font-weight: 700; letter-spacing: normal; text-align: center; text-indent: 0px; text-transform: none; word-spacing: 0px;&quot;&gt;&lt;span style=&quot;font-family: &amp;quot;tahoma&amp;quot; ; font-weight: 400&quot;&gt;Create sub-graphs of each transport mode (OSM tags)&lt;/span&gt;&lt;br&gt;&lt;/div&gt;" style="rounded=1;whiteSpace=wrap;html=1;absoluteArcSize=1;arcSize=14;strokeWidth=2;fillColor=none;labelBackgroundColor=none;" parent="1" vertex="1">
                    <mxGeometry x="2938.5" y="6355" width="125" height="70" as="geometry"/>
                </mxCell>
                <mxCell id="494" style="edgeStyle=none;html=1;fontSize=12;startArrow=none;startFill=0;endArrow=classicThin;endFill=1;labelBackgroundColor=none;" parent="1" source="512" target="497" edge="1">
                    <mxGeometry relative="1" as="geometry"/>
                </mxCell>
                <mxCell id="495" value="" style="edgeStyle=none;html=1;fontSize=12;" parent="1" source="496" target="514" edge="1">
                    <mxGeometry relative="1" as="geometry"/>
                </mxCell>
                <mxCell id="496" value="&lt;div style=&quot;color: rgb(0 , 0 , 0) ; font-family: &amp;#34;tahoma&amp;#34; ; font-size: 12px ; font-style: normal ; letter-spacing: normal ; text-align: center ; text-indent: 0px ; text-transform: none ; word-spacing: 0px&quot;&gt;Assign POIs to categories&lt;br&gt;&lt;/div&gt;" style="rounded=1;whiteSpace=wrap;html=1;absoluteArcSize=1;arcSize=14;strokeWidth=2;fillColor=none;labelBackgroundColor=none;" parent="1" vertex="1">
                    <mxGeometry x="2571" y="6175" width="125" height="70" as="geometry"/>
                </mxCell>
                <mxCell id="497" value="&lt;span style=&quot;text-align: left&quot;&gt;&lt;font style=&quot;font-size: 12px&quot;&gt;$$\mathbf{P'}:=[P'_v]_{n\times k}$$&lt;/font&gt;&lt;/span&gt;" style="shape=parallelogram;html=1;strokeWidth=2;perimeter=parallelogramPerimeter;whiteSpace=wrap;rounded=1;arcSize=12;size=0.23;labelBackgroundColor=none;strokeColor=#FF3333;" parent="1" vertex="1">
                    <mxGeometry x="3101" y="6187.5" width="130" height="45" as="geometry"/>
                </mxCell>
                <mxCell id="498" value="" style="edgeStyle=none;html=1;fontSize=12;startArrow=none;startFill=0;endArrow=classicThin;endFill=1;labelBackgroundColor=none;" parent="1" source="499" target="505" edge="1">
                    <mxGeometry relative="1" as="geometry"/>
                </mxCell>
                <mxCell id="499" value="&lt;div style=&quot;color: rgb(0, 0, 0); font-family: tahoma; font-size: 12px; font-style: normal; font-weight: 700; letter-spacing: normal; text-align: center; text-indent: 0px; text-transform: none; word-spacing: 0px;&quot;&gt;&lt;span style=&quot;font-family: &amp;quot;tahoma&amp;quot; ; font-weight: 400&quot;&gt;Convert spatial distance (m) to temporal distance (s)&lt;/span&gt;&lt;br&gt;&lt;/div&gt;" style="rounded=1;whiteSpace=wrap;html=1;absoluteArcSize=1;arcSize=14;strokeWidth=2;fillColor=none;labelBackgroundColor=none;" parent="1" vertex="1">
                    <mxGeometry x="3141" y="6355" width="125" height="70" as="geometry"/>
                </mxCell>
                <mxCell id="500" value="" style="edgeStyle=none;html=1;fontSize=12;" parent="1" source="501" target="511" edge="1">
                    <mxGeometry relative="1" as="geometry"/>
                </mxCell>
                <mxCell id="501" value="&lt;span style=&quot;text-align: left ; background-color: rgb(248 , 249 , 250)&quot;&gt;&lt;font style=&quot;font-size: 12px&quot;&gt;$$\mathbf{s}:=[s]_{f\times 1}$$&lt;/font&gt;&lt;/span&gt;" style="shape=parallelogram;html=1;strokeWidth=2;perimeter=parallelogramPerimeter;whiteSpace=wrap;rounded=1;arcSize=12;size=0.23;labelBackgroundColor=none;strokeColor=#4D4D4D;" parent="1" vertex="1">
                    <mxGeometry x="2731" y="6052.5" width="130" height="45" as="geometry"/>
                </mxCell>
                <mxCell id="502" style="edgeStyle=none;html=1;fontSize=12;startArrow=none;startFill=0;endArrow=classicThin;endFill=1;labelBackgroundColor=none;" parent="1" source="505" target="470" edge="1">
                    <mxGeometry relative="1" as="geometry">
                        <Array as="points">
                            <mxPoint x="3201" y="6535"/>
                            <mxPoint x="3071" y="6535"/>
                        </Array>
                    </mxGeometry>
                </mxCell>
                <mxCell id="503" style="edgeStyle=none;html=1;fontSize=12;startArrow=none;startFill=0;endArrow=classicThin;endFill=1;labelBackgroundColor=none;" parent="1" source="505" target="473" edge="1">
                    <mxGeometry relative="1" as="geometry">
                        <Array as="points">
                            <mxPoint x="3201" y="6535"/>
                            <mxPoint x="3001" y="6535"/>
                        </Array>
                    </mxGeometry>
                </mxCell>
                <mxCell id="504" style="edgeStyle=none;html=1;fontSize=12;startArrow=none;startFill=0;endArrow=classicThin;endFill=1;labelBackgroundColor=none;" parent="1" source="505" target="477" edge="1">
                    <mxGeometry relative="1" as="geometry">
                        <Array as="points">
                            <mxPoint x="3201" y="6535"/>
                            <mxPoint x="2771" y="6535"/>
                        </Array>
                    </mxGeometry>
                </mxCell>
                <mxCell id="505" value="&lt;span style=&quot;font-weight: 700&quot;&gt;$$\mathbf{w}:=[w_e]_{m\times 1}$$&lt;/span&gt;" style="shape=parallelogram;html=1;strokeWidth=2;perimeter=parallelogramPerimeter;whiteSpace=wrap;rounded=1;arcSize=12;size=0.23;labelBackgroundColor=none;strokeColor=#FF3333;" parent="1" vertex="1">
                    <mxGeometry x="3136" y="6467.5" width="130" height="45" as="geometry"/>
                </mxCell>
                <mxCell id="506" value="" style="edgeStyle=none;html=1;fontSize=12;startArrow=none;startFill=0;endArrow=classicThin;endFill=1;labelBackgroundColor=none;" parent="1" source="507" target="508" edge="1">
                    <mxGeometry relative="1" as="geometry"/>
                </mxCell>
                <mxCell id="507" value="&lt;div style=&quot;color: rgb(0, 0, 0); font-family: tahoma; font-size: 12px; font-style: normal; letter-spacing: normal; text-align: center; text-indent: 0px; text-transform: none; word-spacing: 0px;&quot;&gt;Assign bus stops to&amp;nbsp;&lt;/div&gt;&lt;div style=&quot;color: rgb(0, 0, 0); font-family: tahoma; font-size: 12px; font-style: normal; letter-spacing: normal; text-align: center; text-indent: 0px; text-transform: none; word-spacing: 0px;&quot;&gt;nearest vertices (nearest_neighbor)&lt;/div&gt;" style="rounded=1;whiteSpace=wrap;html=1;absoluteArcSize=1;arcSize=14;strokeWidth=2;fillColor=none;labelBackgroundColor=none;" parent="1" vertex="1">
                    <mxGeometry x="2571" y="6355" width="125" height="70" as="geometry"/>
                </mxCell>
                <mxCell id="508" value="&lt;font style=&quot;font-size: 12px&quot;&gt;$$\mathbf{o}:=[o_v]_{n\times 1}$$&lt;/font&gt;" style="shape=parallelogram;html=1;strokeWidth=2;perimeter=parallelogramPerimeter;whiteSpace=wrap;rounded=1;arcSize=12;size=0.23;labelBackgroundColor=none;strokeColor=#FF3333;" parent="1" vertex="1">
                    <mxGeometry x="2731" y="6365" width="130" height="45" as="geometry"/>
                </mxCell>
                <mxCell id="509" value="&lt;span style=&quot;text-align: left ; background-color: rgb(248 , 249 , 250)&quot;&gt;&lt;font style=&quot;font-size: 12px&quot;&gt;$$\mathbf{s'}:=[s'_v]_{n\times 1}$$&lt;/font&gt;&lt;/span&gt;" style="shape=parallelogram;html=1;strokeWidth=2;perimeter=parallelogramPerimeter;whiteSpace=wrap;rounded=1;arcSize=12;size=0.23;labelBackgroundColor=none;strokeColor=#FF3333;" parent="1" vertex="1">
                    <mxGeometry x="3111" y="6052.5" width="130" height="45" as="geometry"/>
                </mxCell>
                <mxCell id="510" value="" style="edgeStyle=none;html=1;fontSize=12;" parent="1" source="511" target="509" edge="1">
                    <mxGeometry relative="1" as="geometry"/>
                </mxCell>
                <mxCell id="511" value="&lt;font face=&quot;tahoma&quot;&gt;Transform vulnerability score of spatial unit to vertex property&lt;/font&gt;" style="rounded=1;whiteSpace=wrap;html=1;absoluteArcSize=1;arcSize=14;strokeWidth=2;fillColor=none;labelBackgroundColor=none;" parent="1" vertex="1">
                    <mxGeometry x="2929" y="6040" width="125" height="70" as="geometry"/>
                </mxCell>
                <mxCell id="512" value="&lt;div style=&quot;color: rgb(0 , 0 , 0) ; font-family: &amp;#34;tahoma&amp;#34; ; font-size: 12px ; font-style: normal ; letter-spacing: normal ; text-align: center ; text-indent: 0px ; text-transform: none ; word-spacing: 0px&quot;&gt;&lt;span&gt;Assign POIs to&amp;nbsp;&lt;/span&gt;&lt;br&gt;&lt;/div&gt;&lt;div style=&quot;color: rgb(0 , 0 , 0) ; font-family: &amp;#34;tahoma&amp;#34; ; font-size: 12px ; font-style: normal ; letter-spacing: normal ; text-align: center ; text-indent: 0px ; text-transform: none ; word-spacing: 0px&quot;&gt;&lt;div&gt;nearest vertices (nearest_neighbor)&lt;/div&gt;&lt;/div&gt;" style="rounded=1;whiteSpace=wrap;html=1;absoluteArcSize=1;arcSize=14;strokeWidth=2;fillColor=none;labelBackgroundColor=none;" parent="1" vertex="1">
                    <mxGeometry x="2929" y="6175" width="125" height="70" as="geometry"/>
                </mxCell>
                <mxCell id="513" value="" style="edgeStyle=none;html=1;fontSize=12;" parent="1" source="514" target="512" edge="1">
                    <mxGeometry relative="1" as="geometry"/>
                </mxCell>
                <mxCell id="514" value="&lt;span style=&quot;text-align: left&quot;&gt;&lt;font style=&quot;font-size: 12px&quot;&gt;$$\mathbf{P}:=[P]_{o\times k}$$&lt;/font&gt;&lt;/span&gt;" style="shape=parallelogram;html=1;strokeWidth=2;perimeter=parallelogramPerimeter;whiteSpace=wrap;rounded=1;arcSize=12;size=0.23;labelBackgroundColor=none;strokeColor=#4D4D4D;" parent="1" vertex="1">
                    <mxGeometry x="2731" y="6187.5" width="130" height="45" as="geometry"/>
                </mxCell>
                <mxCell id="519" value="" style="edgeStyle=none;html=1;strokeWidth=1;" parent="1" source="516" target="188" edge="1">
                    <mxGeometry relative="1" as="geometry"/>
                </mxCell>
                <mxCell id="516" value="GHSL" style="strokeWidth=1;html=1;shape=mxgraph.flowchart.database;whiteSpace=wrap;verticalAlign=bottom;" parent="1" vertex="1">
                    <mxGeometry x="2291" y="5125" width="60" height="61" as="geometry"/>
                </mxCell>
                <mxCell id="520" value="" style="edgeStyle=none;html=1;strokeWidth=1;" parent="1" source="517" target="189" edge="1">
                    <mxGeometry relative="1" as="geometry"/>
                </mxCell>
                <mxCell id="517" value="&lt;span style=&quot;text-align: right&quot;&gt;Den Haag in Ciijfers&lt;/span&gt;" style="strokeWidth=1;html=1;shape=mxgraph.flowchart.database;whiteSpace=wrap;verticalAlign=bottom;" parent="1" vertex="1">
                    <mxGeometry x="2291" y="5194" width="60" height="62" as="geometry"/>
                </mxCell>
                <mxCell id="518" value="&lt;span style=&quot;text-align: right&quot;&gt;Open&lt;br&gt;Street&lt;br&gt;Map&lt;br&gt;&lt;/span&gt;" style="strokeWidth=1;html=1;shape=mxgraph.flowchart.database;whiteSpace=wrap;verticalAlign=bottom;" parent="1" vertex="1">
                    <mxGeometry x="2291" y="5339" width="60" height="70" as="geometry"/>
                </mxCell>
                <mxCell id="521" value="s' and P' should be calculated for all nodes" style="text;html=1;align=center;verticalAlign=middle;resizable=0;points=[];autosize=1;strokeColor=none;fillColor=none;" parent="1" vertex="1">
                    <mxGeometry x="2898" y="5052" width="237" height="18" as="geometry"/>
                </mxCell>
                <mxCell id="522" value="v and v_bar, should be calculated for all nodes&amp;nbsp;&lt;br&gt;G_base nodes" style="text;html=1;align=center;verticalAlign=middle;resizable=0;points=[];autosize=1;strokeColor=none;fillColor=none;" parent="1" vertex="1">
                    <mxGeometry x="23" y="3555" width="260" height="32" as="geometry"/>
                </mxCell>
                <mxCell id="523" value="&lt;span style=&quot;font-weight: normal&quot;&gt;&lt;font style=&quot;font-size: 16px&quot;&gt;$$G_{start}=(V', E', w)$$&lt;/font&gt;&lt;/span&gt;" style="text;html=1;align=left;verticalAlign=middle;resizable=0;points=[];autosize=1;strokeColor=none;fillColor=none;fontSize=20;fontFamily=Helvetica;fontColor=#000000;fontStyle=1" parent="1" vertex="1">
                    <mxGeometry x="1465" y="2590" width="186" height="29" as="geometry"/>
                </mxCell>
                <mxCell id="524" value="&lt;font style=&quot;font-size: 16px&quot;&gt;\(n':=|V'|, m':=|E'|, w : E' \rightarrow&amp;nbsp;\mathbb{R} \)&lt;/font&gt;" style="text;html=1;align=left;verticalAlign=middle;resizable=0;points=[];autosize=1;strokeColor=none;fillColor=none;fontSize=16;fontFamily=Helvetica;fontColor=none;" parent="1" vertex="1">
                    <mxGeometry x="1465" y="2623" width="355" height="23" as="geometry"/>
                </mxCell>
                <mxCell id="525" value="(in)accessibility" style="text;html=1;align=center;verticalAlign=middle;resizable=0;points=[];autosize=1;strokeColor=none;fillColor=none;rotation=270;" parent="1" vertex="1">
                    <mxGeometry y="3732.5" width="92" height="18" as="geometry"/>
                </mxCell>
                <mxCell id="526" value="$$Maximize \; \; \frac{\Delta \alpha}{\Delta&amp;nbsp; \bar{\alpha} +(\sigma_{fix}+\sigma_{unit}(l) )}$$" style="text;html=1;align=left;verticalAlign=middle;resizable=0;points=[];autosize=1;strokeColor=none;fillColor=none;" parent="1" vertex="1">
                    <mxGeometry x="646" y="2980" width="488" height="18" as="geometry"/>
                </mxCell>
                <mxCell id="527" value="" style="shape=table;startSize=0;container=1;collapsible=0;childLayout=tableLayout;" parent="1" vertex="1">
                    <mxGeometry x="519.1099999999999" y="4307" width="406.2836363636352" height="240" as="geometry"/>
                </mxCell>
                <mxCell id="528" value="" style="shape=partialRectangle;collapsible=0;dropTarget=0;pointerEvents=0;fillColor=none;top=0;left=0;bottom=0;right=0;points=[[0,0.5],[1,0.5]];portConstraint=eastwest;" parent="527" vertex="1">
                    <mxGeometry width="406.2836363636352" height="40" as="geometry"/>
                </mxCell>
                <mxCell id="529" value="&lt;div style=&quot;&quot;&gt;$$\Delta \alpha$$&lt;/div&gt;" style="shape=partialRectangle;html=1;whiteSpace=wrap;connectable=0;overflow=hidden;fillColor=none;top=0;left=0;bottom=0;right=0;pointerEvents=1;align=left;" parent="528" vertex="1">
                    <mxGeometry width="49" height="40" as="geometry">
                        <mxRectangle width="49" height="40" as="alternateBounds"/>
                    </mxGeometry>
                </mxCell>
                <mxCell id="530" value=": change in accessibility score of vulnerable nodes&amp;nbsp;" style="shape=partialRectangle;html=1;whiteSpace=wrap;connectable=0;overflow=hidden;fillColor=none;top=0;left=0;bottom=0;right=0;pointerEvents=1;align=left;" parent="528" vertex="1">
                    <mxGeometry x="49" width="357" height="40" as="geometry">
                        <mxRectangle width="357" height="40" as="alternateBounds"/>
                    </mxGeometry>
                </mxCell>
                <mxCell id="531" value="" style="shape=partialRectangle;collapsible=0;dropTarget=0;pointerEvents=0;fillColor=none;top=0;left=0;bottom=0;right=0;points=[[0,0.5],[1,0.5]];portConstraint=eastwest;" parent="527" vertex="1">
                    <mxGeometry y="40" width="406.2836363636352" height="40" as="geometry"/>
                </mxCell>
                <mxCell id="532" value="&lt;span&gt;$$\Delta \bar{\alpha}$$&lt;/span&gt;" style="shape=partialRectangle;html=1;whiteSpace=wrap;connectable=0;overflow=hidden;fillColor=none;top=0;left=0;bottom=0;right=0;pointerEvents=1;align=left;" parent="531" vertex="1">
                    <mxGeometry width="49" height="40" as="geometry">
                        <mxRectangle width="49" height="40" as="alternateBounds"/>
                    </mxGeometry>
                </mxCell>
                <mxCell id="533" value=": change in accessibility score of non-vulnerable nodes" style="shape=partialRectangle;html=1;whiteSpace=wrap;connectable=0;overflow=hidden;fillColor=none;top=0;left=0;bottom=0;right=0;pointerEvents=1;align=left;" parent="531" vertex="1">
                    <mxGeometry x="49" width="357" height="40" as="geometry">
                        <mxRectangle width="357" height="40" as="alternateBounds"/>
                    </mxGeometry>
                </mxCell>
                <mxCell id="534" value="" style="shape=partialRectangle;collapsible=0;dropTarget=0;pointerEvents=0;fillColor=none;top=0;left=0;bottom=0;right=0;points=[[0,0.5],[1,0.5]];portConstraint=eastwest;" parent="527" vertex="1">
                    <mxGeometry y="80" width="406.2836363636352" height="40" as="geometry"/>
                </mxCell>
                <mxCell id="535" value="$$\sigma_{fix}$$" style="shape=partialRectangle;html=1;whiteSpace=wrap;connectable=0;overflow=hidden;fillColor=none;top=0;left=0;bottom=0;right=0;pointerEvents=1;align=left;" parent="534" vertex="1">
                    <mxGeometry width="49" height="40" as="geometry">
                        <mxRectangle width="49" height="40" as="alternateBounds"/>
                    </mxGeometry>
                </mxCell>
                <mxCell id="536" value=": fixed cost of street enhancement project&amp;nbsp;&amp;nbsp;" style="shape=partialRectangle;html=1;whiteSpace=wrap;connectable=0;overflow=hidden;fillColor=none;top=0;left=0;bottom=0;right=0;pointerEvents=1;align=left;" parent="534" vertex="1">
                    <mxGeometry x="49" width="357" height="40" as="geometry">
                        <mxRectangle width="357" height="40" as="alternateBounds"/>
                    </mxGeometry>
                </mxCell>
                <mxCell id="537" value="" style="shape=partialRectangle;collapsible=0;dropTarget=0;pointerEvents=0;fillColor=none;top=0;left=0;bottom=0;right=0;points=[[0,0.5],[1,0.5]];portConstraint=eastwest;" parent="527" vertex="1">
                    <mxGeometry y="120" width="406.2836363636352" height="40" as="geometry"/>
                </mxCell>
                <mxCell id="538" value="&lt;span style=&quot;&quot;&gt;$$\sigma_{unit}$$&lt;/span&gt;" style="shape=partialRectangle;html=1;whiteSpace=wrap;connectable=0;overflow=hidden;fillColor=none;top=0;left=0;bottom=0;right=0;pointerEvents=1;align=left;" parent="537" vertex="1">
                    <mxGeometry width="49" height="40" as="geometry">
                        <mxRectangle width="49" height="40" as="alternateBounds"/>
                    </mxGeometry>
                </mxCell>
                <mxCell id="539" value=": cost per unit of street enhancement&amp;nbsp;&amp;nbsp;" style="shape=partialRectangle;html=1;whiteSpace=wrap;connectable=0;overflow=hidden;fillColor=none;top=0;left=0;bottom=0;right=0;pointerEvents=1;align=left;" parent="537" vertex="1">
                    <mxGeometry x="49" width="357" height="40" as="geometry">
                        <mxRectangle width="357" height="40" as="alternateBounds"/>
                    </mxGeometry>
                </mxCell>
                <mxCell id="540" value="" style="shape=partialRectangle;collapsible=0;dropTarget=0;pointerEvents=0;fillColor=none;top=0;left=0;bottom=0;right=0;points=[[0,0.5],[1,0.5]];portConstraint=eastwest;" parent="527" vertex="1">
                    <mxGeometry y="160" width="406.2836363636352" height="40" as="geometry"/>
                </mxCell>
                <mxCell id="541" value="$$l$$" style="shape=partialRectangle;html=1;whiteSpace=wrap;connectable=0;overflow=hidden;fillColor=none;top=0;left=0;bottom=0;right=0;pointerEvents=1;align=left;" parent="540" vertex="1">
                    <mxGeometry width="49" height="40" as="geometry">
                        <mxRectangle width="49" height="40" as="alternateBounds"/>
                    </mxGeometry>
                </mxCell>
                <mxCell id="542" value=": the total length of streets to be enhanced&amp;nbsp; in a design" style="shape=partialRectangle;html=1;whiteSpace=wrap;connectable=0;overflow=hidden;fillColor=none;top=0;left=0;bottom=0;right=0;pointerEvents=1;align=left;" parent="540" vertex="1">
                    <mxGeometry x="49" width="357" height="40" as="geometry">
                        <mxRectangle width="357" height="40" as="alternateBounds"/>
                    </mxGeometry>
                </mxCell>
                <mxCell id="543" value="" style="shape=partialRectangle;collapsible=0;dropTarget=0;pointerEvents=0;fillColor=none;top=0;left=0;bottom=0;right=0;points=[[0,0.5],[1,0.5]];portConstraint=eastwest;" parent="527" vertex="1">
                    <mxGeometry y="200" width="406.2836363636352" height="40" as="geometry"/>
                </mxCell>
                <mxCell id="544" value="" style="shape=partialRectangle;html=1;whiteSpace=wrap;connectable=0;overflow=hidden;fillColor=none;top=0;left=0;bottom=0;right=0;pointerEvents=1;align=right;" parent="543" vertex="1">
                    <mxGeometry width="49" height="40" as="geometry">
                        <mxRectangle width="49" height="40" as="alternateBounds"/>
                    </mxGeometry>
                </mxCell>
                <mxCell id="545" value="" style="shape=partialRectangle;html=1;whiteSpace=wrap;connectable=0;overflow=hidden;fillColor=none;top=0;left=0;bottom=0;right=0;pointerEvents=1;" parent="543" vertex="1">
                    <mxGeometry x="49" width="357" height="40" as="geometry">
                        <mxRectangle width="357" height="40" as="alternateBounds"/>
                    </mxGeometry>
                </mxCell>
                <mxCell id="547" value="&lt;span style=&quot;font-size: 11px&quot;&gt;$$\mathbf{v}:=[v_i]_{n\times 1}$$&lt;/span&gt;" style="text;html=1;align=left;verticalAlign=middle;resizable=0;points=[];autosize=1;strokeColor=none;fillColor=none;fontSize=11;" parent="1" vertex="1">
                    <mxGeometry x="650.25" y="3057" width="172" height="17" as="geometry"/>
                </mxCell>
                <mxCell id="548" value="&lt;span style=&quot;font-size: 11px&quot;&gt;$$\mathbf{\bar{v}}:=[\bar{v}_i]_{n\times 1}$$&lt;/span&gt;" style="text;html=1;align=left;verticalAlign=middle;resizable=0;points=[];autosize=1;strokeColor=none;fillColor=none;fontSize=11;" parent="1" vertex="1">
                    <mxGeometry x="650.25" y="3084" width="224" height="17" as="geometry"/>
                </mxCell>
                <mxCell id="549" value="&lt;span style=&quot;text-align: left&quot;&gt;&lt;font style=&quot;font-size: 12px&quot;&gt;$$\mathbf{l}:=[l_{i}]_{m'\times 1}$$&lt;/font&gt;&lt;/span&gt;" style="shape=parallelogram;html=1;strokeWidth=1;perimeter=parallelogramPerimeter;whiteSpace=wrap;rounded=1;arcSize=12;size=0.23;labelBackgroundColor=none;strokeColor=#FF3333;" parent="1" vertex="1">
                    <mxGeometry x="3016" y="5461" width="130" height="45" as="geometry"/>
                </mxCell>
                <mxCell id="550" value="&lt;span style=&quot;text-align: left&quot;&gt;&lt;font style=&quot;font-size: 12px&quot;&gt;$$\mathbf{x}:=[x_{i}]_{m'\times 1}$$&lt;/font&gt;&lt;/span&gt;" style="shape=parallelogram;html=1;strokeWidth=1;perimeter=parallelogramPerimeter;whiteSpace=wrap;rounded=1;arcSize=12;size=0.23;labelBackgroundColor=none;strokeColor=#FF3333;" parent="1" vertex="1">
                    <mxGeometry x="3002" y="5521" width="130" height="45" as="geometry"/>
                </mxCell>
                <mxCell id="566" value="$$\frac{\boldsymbol{1}^T(\boldsymbol{v} \odot (\boldsymbol{\alpha}(\boldsymbol{x})^{(t)} -\boldsymbol{\alpha}(\boldsymbol{x})^{(t+1)}&lt;br&gt;))}{\lambda(\sigma_\mathrm&lt;br&gt;{fix}+\boldsymbol{1}^T&lt;br&gt;(\sigma_\mathrm{unit}(\boldsymbol{x} \odot \boldsymbol{l})))}$$" style="text;html=1;align=left;verticalAlign=middle;resizable=0;points=[];autosize=1;strokeColor=none;fillColor=none;" parent="1" vertex="1">
                    <mxGeometry x="292" y="2087" width="714" height="60" as="geometry"/>
                </mxCell>
                <mxCell id="570" value="&lt;span style=&quot;font-size: 11px&quot;&gt;$$\boldsymbol{v}:=[v_\mathrm{i}]_{n\times 1} \in [0,1]^n$$&lt;/span&gt;" style="text;html=1;align=left;verticalAlign=middle;resizable=0;points=[];autosize=1;strokeColor=none;fillColor=none;fontSize=11;" parent="1" vertex="1">
                    <mxGeometry x="49" y="2381" width="292" height="17" as="geometry"/>
                </mxCell>
                <mxCell id="571" value="$$\boldsymbol{x}:=[x_\mathrm{i}]_{a\times 1} \in \{0, 1\}^{a}$$" style="text;html=1;align=left;verticalAlign=middle;resizable=0;points=[];autosize=1;strokeColor=none;fillColor=none;fontSize=11;" parent="1" vertex="1">
                    <mxGeometry x="49" y="2414" width="310" height="17" as="geometry"/>
                </mxCell>
                <mxCell id="572" value="$$\boldsymbol{\alpha}:=[\alpha_\mathrm{i}]_{n\times 1}$$" style="text;html=1;align=left;verticalAlign=middle;resizable=0;points=[];autosize=1;strokeColor=none;fillColor=none;fontSize=11;" parent="1" vertex="1">
                    <mxGeometry x="49" y="2444" width="290" height="17" as="geometry"/>
                </mxCell>
                <mxCell id="573" value="$$\boldsymbol{l}:=[l_\mathrm{i}]_{a\times 1}$$" style="text;html=1;align=left;verticalAlign=middle;resizable=0;points=[];autosize=1;strokeColor=none;fillColor=none;fontSize=11;" parent="1" vertex="1">
                    <mxGeometry x="49" y="2475" width="235" height="17" as="geometry"/>
                </mxCell>
                <mxCell id="574" value="&lt;font style=&quot;font-size: 7px&quot;&gt;cost scaling factor &amp;amp; total cost&lt;/font&gt;" style="text;html=1;align=center;verticalAlign=middle;resizable=0;points=[];autosize=1;strokeColor=none;fillColor=none;fontSize=11;fontColor=#FF3333;" parent="1" vertex="1">
                    <mxGeometry x="365" y="2340" width="103" height="19" as="geometry"/>
                </mxCell>
                <mxCell id="575" value="$$Maximize \; \; \frac{\Delta \alpha}{\Delta&amp;nbsp; \bar{\alpha} +(\sigma_{fix}+\sigma_{unit}(l) )}$$" style="text;html=1;align=left;verticalAlign=middle;resizable=0;points=[];autosize=1;strokeColor=none;fillColor=none;" parent="1" vertex="1">
                    <mxGeometry x="24.5" y="2166" width="488" height="18" as="geometry"/>
                </mxCell>
                <mxCell id="576" value="&lt;span style=&quot;color: rgba(0 , 0 , 0 , 0) ; font-family: monospace ; font-size: 0px&quot;&gt;%3CmxGraphModel%3E%3Croot%3E%3CmxCell%20id%3D%220%22%2F%3E%3CmxCell%20id%3D%221%22%20parent%3D%220%22%2F%3E%3CmxCell%20id%3D%222%22%20value%3D%22%24%24Maximize%20%5C%3B%20%5C%3B%20%5Cfrac%7B%5CDelta%20%5Calpha%7D%7B%5CDelta%26amp%3Bnbsp%3B%20%5Cbar%7B%5Calpha%7D%20%2B(%5Csigma_%7Bfix%7D%2B%5Csigma_%7Bunit%7D(l)%20)%7D%24%24%22%20style%3D%22text%3Bhtml%3D1%3Balign%3Dleft%3BverticalAlign%3Dmiddle%3Bresizable%3D0%3Bpoints%3D%5B%5D%3Bautosize%3D1%3BstrokeColor%3Dnone%3BfillColor%3Dnone%3B%22%20vertex%3D%221%22%20parent%3D%221%22%3E%3CmxGeometry%20x%3D%2224.5%22%20y%3D%222166%22%20width%3D%22488%22%20height%3D%2218%22%20as%3D%22geometry%22%2F%3E%3C%2FmxCell%3E%3C%2Froot%3E%3C%2FmxGraphModel%3E&lt;/span&gt;" style="text;html=1;align=center;verticalAlign=middle;resizable=0;points=[];autosize=1;strokeColor=none;fillColor=none;fontSize=7;fontColor=#FF3333;" parent="1" vertex="1">
                    <mxGeometry x="88" y="2206" width="10" height="14" as="geometry"/>
                </mxCell>
                <mxCell id="577" value="$$\frac{\boldsymbol{1}^T \left( \boldsymbol{v} \odot \left( \boldsymbol{\alpha} \left( \boldsymbol{x}^{ \left( t+1 \right) }&lt;br&gt;&amp;nbsp;\right)&lt;br&gt;&amp;nbsp;-\boldsymbol{\alpha}&lt;br&gt;&amp;nbsp;\left( \boldsymbol{x}^{\left(t\right)}&amp;nbsp;&lt;br&gt;\right)&lt;br&gt;\right)\right)}{\lambda&amp;nbsp;\left(&amp;nbsp;\sigma_\mathrm&lt;br&gt;{fix}+\boldsymbol{1}^T&lt;br&gt;\left( \sigma_\mathrm{unit}\left(\left( \boldsymbol{x}^{\left(t+1 \right)} - \boldsymbol{x}^{\left(t\right)}&lt;br&gt;\right)&amp;nbsp;\odot \boldsymbol{l}\right) \right)\right)}$$" style="text;html=1;align=left;verticalAlign=middle;resizable=0;points=[];autosize=1;strokeColor=none;fillColor=none;" parent="1" vertex="1">
                    <mxGeometry x="105" y="2261" width="621" height="130" as="geometry"/>
                </mxCell>
                <mxCell id="579" value="\left( \right)" style="text;html=1;align=center;verticalAlign=middle;resizable=0;points=[];autosize=1;strokeColor=none;fillColor=none;" parent="1" vertex="1">
                    <mxGeometry x="320" y="2173" width="67" height="18" as="geometry"/>
                </mxCell>
                <mxCell id="582" value="maximize" style="text;html=1;align=center;verticalAlign=middle;resizable=0;points=[];autosize=1;strokeColor=none;fillColor=none;" parent="1" vertex="1">
                    <mxGeometry x="44" y="2317" width="61" height="18" as="geometry"/>
                </mxCell>
                <mxCell id="583" value="$$\mathbf{x}^{(t+1)}=\mathbf{P}\mathbf{x}^{(t)}$$" style="text;html=1;align=center;verticalAlign=middle;resizable=0;points=[];autosize=1;strokeColor=none;fillColor=none;" parent="1" vertex="1">
                    <mxGeometry x="-33" y="2236" width="271" height="18" as="geometry"/>
                </mxCell>
                <mxCell id="584" value="$$\frac{ \boldsymbol{v}^T \left( \boldsymbol{\alpha} \left( \boldsymbol{x}^{ \left( t+1 \right) }&lt;br&gt;&amp;nbsp;\right)&lt;br&gt;&amp;nbsp;-\boldsymbol{\alpha}&lt;br&gt;&amp;nbsp;\left( \boldsymbol{x}^{\left(t\right)}&amp;nbsp;&lt;br&gt;\right)&lt;br&gt;\right)}{\lambda&amp;nbsp;\left(&amp;nbsp;\sigma_\mathrm&lt;br&gt;{fix}+\boldsymbol{1}^T&lt;br&gt;\left( \sigma_\mathrm{unit}\left(\left( \boldsymbol{x}^{\left(t+1 \right)} - \boldsymbol{x}^{\left(t\right)}&lt;br&gt;\right)&amp;nbsp;\odot \boldsymbol{l}\right) \right)\right)}$$" style="text;html=1;align=left;verticalAlign=middle;resizable=0;points=[];autosize=1;strokeColor=none;fillColor=none;" parent="1" vertex="1">
                    <mxGeometry x="266" y="2362" width="526" height="130" as="geometry"/>
                </mxCell>
            </root>
        </mxGraphModel>
    </diagram>
</mxfile>